SplineFontDB: 1.0
FontName: Tuffy
FullName: Tuffy Regular
FamilyName: Tuffy
Weight: Regular
Copyright: Created by Thatcher Ulrich (http://tulrich.com) with FontForge 1.0 (http://fontforge.sf.net)\n\nThis font, including hint instructions, has been donated to the Public Domain.  Do whatever you want with it.\n
Comments: 2004-9-1: Created.
Version: 001.000
ItalicAngle: 0
UnderlinePosition: -100
UnderlineWidth: 50
Ascent: 780
Descent: 220
NeedsXUIDChange: 1
XUID: [1021 745 1046372284 8037501]
FSType: 0
PfmFamily: 33
TTFWeight: 500
TTFWidth: 5
Panose: 2 11 6 3 6 1 0 0 0 0
LineGap: 93
VLineGap: 0
OS2WinAscent: 0
OS2WinAOffset: 1
OS2WinDescent: 0
OS2WinDOffset: 1
HheadAscent: 0
HheadAOffset: 1
HheadDescent: 0
HheadDOffset: 1
ScriptLang: 2
 1 latn 1 dflt 
 1 DFLT 1 dflt 
TtfTable: cvt  4
!$MDh
EndTtf
LangName: 1033 "" "" "" "" "" "" "" "" "" "Thatcher Ulrich" "" "http://tulrich.com+AAoA" "http://tulrich.com+AAoA" "Public Domain+AAoA" 
LangName: 1036 "" "" "NormalItalique" 
LangName: 1040 "" "" "NormaleCursivo" 
LangName: 1031 "" "" "StandardKursiv" 
LangName: 1034 "" "" "NormalCursiva" 
LangName: 1049 "" "" "+BB4EMQRLBEcEPQRLBDkEGgRDBEAEQQQ4BDIA" 
LangName: 1038 "" "" "Norm+AOEA-lD+AVEA-lt" 
LangName: 1043 "" "" "RegelmatigCursief" 
LangName: 1053 "" "" "MagerKursiv" 
LangName: 1044 "" "" "VanligKursiv" 
Encoding: compacted
OldEncoding: UnicodeBmp
UnicodeInterp: none
DisplaySize: -48
AntiAlias: 1
FitToEm: 1
WinInfo: 0 17 9
BeginPrivate: 7
BlueValues 23 [-16 2 522 538 708 728]
OtherBlues 0 
StdHW 4 [66]
StdVW 5 [70]

StemSnapH 6 [66] 

StemSnapV 6 [70] 

BlueScale 8 0.039625
EndPrivate
Grid
-24 262 m 6
 772 262 l 4
531 830 m 29
 531 -16 l 29
-20 710 m 6
 776 710 l 4
-22 524 m 6
 774 524 l 4
490 830 m 29
 490 -16 l 29
562 832 m 29
 562 -14 l 29
-24 355 m 6
 772 355 l 4
-28 -14 m 6
 768 -14 l 4
70 832 m 29
 70 -14 l 29
EndSplineSet

StartChar: exclam
Encoding: 1 33 1
OldEncoding: 33
Width: 206
Flags: HW
HStem: 691 20G<65 142>
VStem: 65 77<195 711>
Fore
141.999 195 m 1
 64.999 195 l 1
 65 711 l 1
 142 711 l 1
 141.999 195 l 1
EndSplineSet
Ref: 14 46 N 1 0 0 1 -5 0
EndChar
StartChar: quotedbl
Encoding: 2 34 2
OldEncoding: 34
Width: 357
Flags: HW
VStem: 68 73<716 725.547> 211 73<716 725.547>
Fore
221 533 m 1
 210.999 716 l 1
 211.001 740.105 228.663 753.054 246.063 753.054 c 0
 246.709 753.054 247.355 753.036 248 753 c 0
 263.55 753 279.101 744.044 283.045 725.486 c 0
 283.667 722.562 283.999 719.402 283.999 716 c 1
 274 533 l 1
 273 518 259 510 247 510 c 0
 236.083 510 224.338 515.794 221.555 528.888 c 0
 221.278 530.186 221.09 531.557 221 533 c 1
78 533 m 1
 67.999 716 l 1
 68.001 740.105 85.6631 753.054 103.063 753.054 c 0
 103.709 753.054 104.355 753.036 105 753 c 0
 120.55 753 136.101 744.044 140.045 725.486 c 0
 140.667 722.562 140.999 719.402 140.999 716 c 1
 131 533 l 1
 130 518 116 510 104 510 c 0
 93.083 510 81.3379 515.794 78.5547 528.888 c 0
 78.2783 530.186 78.0898 531.557 78 533 c 1
EndSplineSet
EndChar
StartChar: numbersign
Encoding: 3 35 3
OldEncoding: 35
Width: 796
Flags: HW
HStem: 198 69<68 238 311 478 551 727> 432 68<68 238 311 478 551 727>
VStem: 238 73<26 198 267 432 500 685> 478 73<26 198 267 432 500 685>
Fore
478 267 m 0
 478 432 l 0
 311 432 l 0
 311 267 l 0
 478 267 l 0
551 198 m 0
 551 26 l 1
 478 26 l 1
 478 198 l 0
 311 198 l 0
 311 26 l 1
 238 26 l 1
 238 198 l 0
 68 198 l 1
 68 267 l 1
 238 267 l 0
 238 432 l 0
 68 432 l 1
 68 500 l 1
 238 500 l 0
 238.001 685 l 1
 311.001 685 l 1
 311 500 l 0
 478 500 l 0
 478.001 685 l 1
 551.001 685 l 1
 551 500 l 0
 727 500 l 1
 727 432 l 1
 551 432 l 0
 551 267 l 0
 727 267 l 1
 727 198 l 1
 551 198 l 0
EndSplineSet
KernsSLIF: 4 -27 0 0
EndChar
StartChar: dollar
Encoding: 4 36 4
OldEncoding: 36
Width: 449
Flags: HW
HStem: 0 148<208 250> 89 59<177 214> 565 59<177 214> 565 146<177 227>
VStem: 37 73<479 497> 177 73<0 89 624 711> 323 73<223 241>
Fore
34 206 m 1x4e
 93 225 l 1
 107.001 191 157 148 214 148 c 0
 267 148 323 167 323 235 c 1
 323.001 239.853 322.488 244.628 321.495 249.301 c 0
 313.072 288.928 270.038 321.266 210.999 332 c 0
 119.863 347.623 55.8486 381.327 40.5322 453.382 c 0
 38.2021 464.344 37 476.192 37 489 c 0
 37 575 123.001 624 177.001 624 c 0xae
 177 711 l 9
 250 711 l 17x1e
 250.001 626 l 0
 304.001 626 385 566 397 511 c 0
 336.999 490 l 1
 327.999 519 279.001 565 214.001 565 c 1
 139.001 565 110 532 110 485 c 1
 110 476.475 110.713 468.921 112.142 462.198 c 0
 120.436 423.178 152.848 412.089 210 401 c 0
 308.366 383.277 378.46 332.57 393.143 263.495 c 0
 395.028 254.623 395.999 245.448 396 236 c 0
 396.001 133 304 89 250 89 c 0x6e
 250 0 l 9
 177 0 l 17x8e
 177 89 l 0
 129 89 50 144 34 206 c 1x4e
EndSplineSet
EndChar
StartChar: percent
Encoding: 5 37 5
OldEncoding: 37
Width: 705
Flags: HW
HStem: 51 56<503 521> 255 59<503 521> 395 56<183 201> 599 59<183 201>
VStem: 56 62<526 532> 260 63<526 532> 377 63<182 184> 581 63<182 184>
DStem: 491 644 561 644 139 67 212 67
Fore
440.001 182 m 0
 440 175.392 440.669 169.006 441.959 162.937 c 0
 448.868 130.432 473.608 107 508.999 107 c 0
 547.999 107 581 138 581.001 182 c 0
 581 187.202 580.448 192.315 579.395 197.27 c 0
 572.552 229.465 544.531 255 509 255 c 0
 471 255 440 221 440.001 182 c 0
377.001 182 m 0
 377 255 436 314 510 314 c 0
 574.533 314 628.42 269.13 641.15 209.235 c 0
 643.019 200.449 644.001 191.339 644.001 182 c 0
 644 109 584.001 51 510.001 51 c 0
 445.58 51 392.526 94.9561 379.871 154.497 c 0
 377.988 163.351 377 172.55 377.001 182 c 0
118 526 m 0
 117.999 519.587 118.653 513.384 119.908 507.476 c 0
 126.877 474.692 152.413 451 188 451 c 0
 227 451 260 482 260 526 c 0
 260.001 531.202 259.448 536.316 258.396 541.271 c 0
 251.552 573.466 223.53 599 188 599 c 0
 150 599 118.001 565 118 526 c 0
56 526 m 0
 56 599 115 658 189 658 c 0
 253.534 658 307.419 613.13 320.15 553.235 c 0
 322.018 544.449 323 535.339 323 526 c 0
 323 453 263 395 189 395 c 0
 124.579 395 71.5273 438.956 58.8711 498.497 c 0
 56.9893 507.351 56 516.55 56 526 c 0
212 67 m 1
 139 67 l 1
 491.001 644 l 0
 561.001 644 l 1
 212 67 l 1
EndSplineSet
EndChar
StartChar: ampersand
Encoding: 6 38 6
OldEncoding: 38
Width: 626
Flags: HW
HStem: -15 69<279 290> 199 68<326 431 326 581> 369 69<272 365> 660 69<282 290>
VStem: 49 77<210 226> 95 77<554 562> 431 81<192 199> 431 150<198 198.938>
Back
96 550 m 4
 96 648.256 175.744 728 274 728 c 4
 372.256 728 452 648.256 452 550 c 4
 452 451.744 372.256 372 274 372 c 4
 175.744 372 96 451.744 96 550 c 4
162 551 m 4
 162 612.824 212.176 663 274 663 c 4
 335.824 663 386 612.824 386 551 c 4
 386 489.176 335.824 439 274 439 c 4
 212.176 439 162 489.176 162 551 c 4
46 212 m 4
 46 337.856 148.144 440 274 440 c 4
 399.856 440 502 337.856 502 212 c 4
 502 86.144 399.856 -16 274 -16 c 4
 148.144 -16 46 86.144 46 212 c 4
114 212 m 4
 114 299.216 184.784 370 272 370 c 4
 359.216 370 430 299.216 430 212 c 4
 430 124.784 359.216 54 272 54 c 4
 184.784 54 114 124.784 114 212 c 4
EndSplineSet
Fore
381 600 m 17xf4
 370 631 336 660 282 660 c 1
 230 660 172 618 172 554 c 1xf4
 171.999 544.278 172.984 535.067 174.825 526.406 c 0
 186.619 470.92 233.562 438 282 438 c 1
 365 438 l 1
 365.001 369 l 1
 284.001 369 l 2
 193.001 369 126.001 308 126 210 c 0
 126 198.504 127.201 187.375 129.468 176.71 c 0
 144.751 104.809 208.463 54 279.001 54 c 1
 362.001 54 430.999 125 431 199 c 1xfa
 326 199 l 1
 326 267 l 1
 581 267 l 1
 581 198 l 1xf1
 512 198 l 1
 512.001 112 431 -15 279 -15 c 1
 161.811 -15 74.7627 65.6299 53.834 164.092 c 0
 50.6533 179.056 49 194.432 49 210 c 0xfa
 49.001 320 134.001 396 183 407 c 1
 147.742 423.399 111.14 456.607 99.1016 513.239 c 0
 96.459 525.673 95 539.237 95 554 c 0
 95 642 177 729 282 729 c 0
 366 729 417 689 445 638 c 9
 381 600 l 17xf4
EndSplineSet
EndChar
StartChar: quotesingle
Encoding: 7 39 7
OldEncoding: 39
Width: 207
Flags: HW
Fore
78 533 m 5
 67.999 716 l 5
 68.001 740.105 85.6631 753.054 103.063 753.054 c 0
 103.709 753.054 104.355 753.036 105 753 c 4
 120.55 753 136.101 744.044 140.045 725.486 c 0
 140.667 722.562 140.999 719.402 140.999 716 c 5
 131 533 l 5
 130 518 116 510 104 510 c 4
 93.083 510 81.3379 515.794 78.5547 528.888 c 0
 78.2783 530.186 78.0898 531.557 78 533 c 5
EndSplineSet
EndChar
StartChar: parenleft
Encoding: 8 40 8
OldEncoding: 40
Width: 288
Flags: HW
VStem: 25 74<326 392>
Fore
141 -41 m 1
 92.0771 34.2197 59.6084 116.545 41.7656 200.487 c 0
 30.4326 253.808 25 307.781 25 361 c 0
 25 487 64 642 141 763 c 1
 228 763 l 1
 138 632 99 487 99 356 c 0
 99 313.762 103.791 269.672 113.267 225.097 c 0
 132.504 134.59 171.049 42.0811 228 -41 c 1
 141 -41 l 1
EndSplineSet
EndChar
StartChar: parenright
Encoding: 9 41 9
OldEncoding: 41
Width: 282
Flags: HW
VStem: 178 74<355 386>
Fore
135 -47 m 1
 49 -47 l 1
 133 76 178 227 178 355 c 0
 178.001 395.18 173.067 439.508 163.314 485.394 c 0
 143.938 576.55 105.539 673.854 49 757 c 1
 135 757 l 1
 183.183 681.285 216.877 592.256 235.35 505.351 c 0
 246.397 453.374 252 402.156 252 355 c 0
 252 221 214 74 135 -47 c 1
EndSplineSet
EndChar
StartChar: asterisk
Encoding: 10 42 10
OldEncoding: 42
Width: 466
Flags: HW
HStem: 278 69<38 178 297 430>
DStem: 106 469 165 504 177 347 236 381 178 278 236 243 110 164 170 129 236 243 296 278 302 129 361 165 306 506 365 470 236 381 297 347
Fore
296 278 m 1
 361 165 l 1
 302 129 l 1
 236 243 l 1
 170 129 l 1
 110 164 l 1
 178 278 l 1
 38 278 l 1
 38 347 l 1
 177 347 l 1
 106 469 l 1
 165.001 504 l 1
 236 381 l 1
 306 506 l 1
 364.999 470 l 1
 297 347 l 1
 430 347 l 1
 430 278 l 1
 296 278 l 1
EndSplineSet
EndChar
StartChar: plus
Encoding: 11 43 11
OldEncoding: 43
Width: 457
Flags: HW
HStem: 278 69<43 193 262 412>
VStem: 193 69<126 278 347 499>
Fore
43 347 m 1
 193 347 l 1
 192.999 499 l 1
 261.999 499 l 1
 262 347 l 1
 412 347 l 1
 412 278 l 1
 262 278 l 1
 262 126 l 1
 193 126 l 1
 193 278 l 1
 43 278 l 1
 43 347 l 1
EndSplineSet
EndChar
StartChar: comma
Encoding: 12 44 12
OldEncoding: 44
Width: 215
Flags: HW
Fore
160.499 46 m 1
 160.5 -31 111 -91 100 -108 c 1
 73 -93 l 1
 83 -78 108 -41 108 -6 c 0
 82.7617 -6 61.6641 11.459 56.6367 35.1094 c 0
 55.8916 38.6152 55.5 42.2578 55.5 46 c 0
 55.5 74.9805 79.0195 98.5 108 98.5 c 0
 133.224 98.5 154.311 80.6836 159.354 56.9561 c 0
 160.104 53.4219 160.5 49.7568 160.499 46 c 1
EndSplineSet
EndChar
StartChar: hyphen
Encoding: 13 45 13
OldEncoding: 45
Width: 443
Flags: HW
HStem: 275 69<58 389>
Fore
58 344 m 1
 389 344 l 1
 389 275 l 1
 58 275 l 1
 58 344 l 1
EndSplineSet
EndChar
StartChar: period
Encoding: 14 46 14
OldEncoding: 46
Width: 218
Flags: HW
Back
27.1055 67.7627 m 4
 27.1055 105.167 57.4629 135.525 94.8672 135.525 c 4
 132.272 135.525 162.63 105.167 162.63 67.7627 c 4
 162.63 30.3574 132.272 0 94.8672 0 c 4
 57.4629 0 27.1055 30.3574 27.1055 67.7627 c 4
EndSplineSet
Fore
55.5 46 m 0
 55.5 74.9805 79.0195 98.5 108 98.5 c 0
 133.224 98.5 154.311 80.6836 159.354 56.9561 c 0
 160.104 53.4219 160.5 49.7568 160.499 46 c 0
 160.499 17.0195 136.98 -6.5 108 -6.5 c 0
 82.7764 -6.5 61.6895 11.3164 56.6465 35.0439 c 0
 55.8945 38.5781 55.5 42.2432 55.5 46 c 0
EndSplineSet
EndChar
StartChar: slash
Encoding: 15 47 15
OldEncoding: 47
Width: 415
Flags: HW
HStem: 0 21G<-6 71>
DStem: 344 754 421 754 -6 0 71 0
Fore
71 0 m 1
 -6 0 l 1
 344 754 l 0
 421 754 l 1
 71 0 l 1
EndSplineSet
KernsSLIF: 15 -70 0 0
EndChar
StartChar: zero
Encoding: 16 48 16
OldEncoding: 48
Width: 575
Flags: HW
HStem: -15 69<285 295> 660 69<289 295>
VStem: 54 77<355 386> 440 77<355 386>
Fore
54 355 m 1
 54 555 141 729 289 729 c 1
 401.203 729 474.322 628.992 503.13 493.466 c 0
 512.32 450.228 517 403.374 517 355 c 1
 517 156 433 -15 285 -15 c 1
 171.624 -15 96.3936 85.3486 67.3984 221.76 c 0
 58.543 263.42 54 308.444 54 355 c 1
131 355 m 1
 131 314.373 135.105 271.158 143.742 230.527 c 0
 164.017 135.144 209.263 54 285.001 54 c 1
 394.001 54 440 219 440 355 c 1
 440 398.316 435.801 444.732 426.613 487.956 c 0
 406.743 581.441 363.537 660 289 660 c 1
 181 660 131 492 131 355 c 1
EndSplineSet
EndChar
StartChar: one
Encoding: 17 49 17
OldEncoding: 49
Width: 575
Flags: HW
HStem: 0 21G<289 366> 691 20G<290 366>
VStem: 289 77<0 711>
DStem: 290 711 289 613 143 584 190 528
Fore
289 613 m 1
 189.999 528 l 1
 143 584 l 1
 290 711 l 1
 366 711 l 1
 366 0 l 1
 289 0 l 1
 289 613 l 1
EndSplineSet
EndChar
StartChar: two
Encoding: 18 50 18
OldEncoding: 50
Width: 575
Flags: HW
HStem: 0 69<204 511> 661 69<283 299>
VStem: 423 75<479 497>
DStem: 297 261 322 195 48 0 204 69
Back
54.5947 492.06 m 4
 54.5947 623.265 151.739 729.75 271.435 729.75 c 4
 391.131 729.75 488.275 623.265 488.275 492.06 c 4
 488.275 360.855 391.131 254.37 271.435 254.37 c 4
 151.739 254.37 54.5947 360.855 54.5947 492.06 c 4
165.1 492.06 m 4
 165.1 568.021 212.738 629.67 271.435 629.67 c 4
 330.132 629.67 377.77 568.021 377.77 492.06 c 4
 377.77 416.1 330.132 354.45 271.435 354.45 c 4
 212.738 354.45 165.1 416.1 165.1 492.06 c 4
EndSplineSet
Fore
133 542 m 9
 64.999 569 l 17
 90 658 184 730 283 730 c 1
 360.061 730 464.246 677.215 491.356 549.674 c 0
 495.908 528.258 498.287 504.735 497.999 479 c 1
 498 355 390 278 321.999 195 c 1
 204 69 l 1
 511 69 l 17
 511 0 l 1
 48 0 l 1
 297.001 261 l 17
 351.001 320 423 385 422.999 479 c 0
 422.999 501.662 420.903 521.953 417.064 540.012 c 0
 398.884 625.549 341.623 661 283 661 c 1
 221 661 158 621 133 542 c 9
EndSplineSet
EndChar
StartChar: three
Encoding: 19 51 19
OldEncoding: 51
Width: 575
Flags: HW
HStem: -15 69<282 295> 663 68<262.893 295>
VStem: 417 77<530 546> 434 77<177.181 210>
Back
12.5098 525.42 m 4
 12.5098 645.115 109.654 729.75 229.35 729.75 c 4
 349.046 729.75 446.19 645.115 446.19 525.42 c 4
 446.19 405.725 349.046 321.09 229.35 321.09 c 4
 109.654 321.09 12.5098 405.725 12.5098 525.42 c 4
110.505 525.42 m 4
 110.505 591.022 163.748 631.755 229.35 631.755 c 4
 294.952 631.755 348.195 591.022 348.195 525.42 c 4
 348.195 459.817 294.952 419.085 229.35 419.085 c 4
 163.748 419.085 110.505 459.817 110.505 525.42 c 4
229.35 525.42 m 29
11.4678 202.245 m 4
 11.4678 321.94 108.611 419.085 228.308 419.085 c 4
 348.003 419.085 445.147 321.94 445.147 202.245 c 4
 445.147 82.5488 348.003 -14.5947 228.308 -14.5947 c 4
 108.612 -14.5947 11.4678 82.5488 11.4678 202.245 c 4
109.463 202.245 m 4
 109.463 267.848 162.705 321.09 228.308 321.09 c 4
 293.91 321.09 347.152 267.848 347.152 202.245 c 4
 347.152 136.643 293.91 83.4004 228.308 83.4004 c 4
 162.705 83.4004 109.463 136.643 109.463 202.245 c 4
228.308 202.245 m 29
EndSplineSet
Fore
70 123 m 9xd0
 146 146 l 17
 171.001 92 229.001 54 282.001 54 c 1
 362.001 54 434 99 434 197 c 1xd0
 434 209.55 432.778 221.212 430.483 232.007 c 0
 415.043 304.649 351.038 338 284 338 c 0
 246 338 l 1
 246 403 l 1
 284 403 l 0
 355 403 417 444 417 530 c 1
 417 542.561 415.799 554.602 413.386 565.954 c 0
 401.2 623.284 358.125 663 283 663 c 1
 280 663 l 0
 229 663 177 636 156.001 586 c 9
 89 617 l 17
 123 684 202 731 283 731 c 1
 389.331 731 469.506 668.971 489.283 575.925 c 0
 492.384 561.339 494 545.991 494 530 c 1xe0
 494 435 430.001 387 399 368 c 1
 435.451 356.98 490.585 315.78 506.534 240.744 c 0
 509.4 227.262 511 212.688 511 197 c 1
 511 63 409 -15 282 -15 c 1
 206 -15 108 35 70 123 c 9xd0
EndSplineSet
EndChar
StartChar: four
Encoding: 20 52 20
OldEncoding: 52
Width: 575
Flags: HW
HStem: 0 21G<350 427> 194 69<163 350 427 519> 691 20G<344 350 350 427 427 430>
VStem: 350 77<0 194 263 705>
DStem: 344 711 352 596.423 48 194 163 263
Fore
427 705.688 m 1
 426.999 262 l 9
 518.999 262 l 17
 519 194 l 1
 427 194 l 1
 427 0 l 1
 350 0 l 1
 350 194 l 1
 48 194 l 9
 344 711 l 1
 350 711 l 1
 427 711 l 1
 430 711 l 1
 427 705.688 l 1
351.999 596.423 m 5
 163 263 l 1
 352 263 l 1
 351.999 596.423 l 5
EndSplineSet
EndChar
StartChar: five
Encoding: 21 53 21
OldEncoding: 53
Width: 575
Flags: HW
HStem: -15 69<297 312> 394 66<300 312> 642 69<148 476>
VStem: 441 76<208 242>
DStem: 148 711 212 642 102 384 180 433
Back
109.463 552.525 m 4
 109.463 650.354 189.793 729.75 288.772 729.75 c 4
 387.752 729.75 468.082 650.354 468.082 552.525 c 4
 468.082 454.697 387.752 375.3 288.772 375.3 c 4
 189.793 375.3 109.463 454.697 109.463 552.525 c 4
70.8896 202.245 m 4
 70.8896 321.94 168.034 419.085 287.73 419.085 c 4
 407.426 419.085 504.57 321.94 504.57 202.245 c 4
 504.57 82.5488 407.426 -14.5947 287.73 -14.5947 c 4
 168.034 -14.5947 70.8896 82.5488 70.8896 202.245 c 4
168.885 202.245 m 4
 168.885 267.848 222.128 321.09 287.73 321.09 c 4
 353.332 321.09 406.575 267.848 406.575 202.245 c 4
 406.575 136.643 353.332 83.4004 287.73 83.4004 c 4
 222.128 83.4004 168.885 136.643 168.885 202.245 c 4
287.73 202.245 m 29
EndSplineSet
Fore
300 394 m 1
 222 394 188 359 173 347 c 1
 102 384 l 9
 148 711 l 1
 476 711 l 1
 476 642 l 1
 212 642 l 1
 180 433 l 1
 208 450 245 460 300 460 c 1
 405.899 460 488.112 391.816 510.766 285.241 c 0
 514.852 266.018 517 245.546 516.999 224 c 1
 516.999 98 433 -15 297 -15 c 1
 184 -15 100 58 71 161 c 9
 147 175 l 17
 163.999 125 201.001 54 297.001 54 c 1
 383.001 54 441 124 441 225 c 1
 441 239.139 439.516 252.813 436.745 265.848 c 0
 420.901 340.388 362.985 394 300 394 c 1
EndSplineSet
EndChar
StartChar: six
Encoding: 22 54 22
OldEncoding: 54
Width: 575
Flags: HW
HStem: -15 73<275 293> 346 73<285 293>
VStem: 68 73<192 210> 434 73<199 210>
DStem: 323 740 385 703 150 425 218 404
Back
97.3379 552.525 m 4
 97.3379 650.354 177.668 729.75 276.647 729.75 c 4
 375.627 729.75 455.957 650.354 455.957 552.525 c 4
 455.957 454.697 375.627 375.3 276.647 375.3 c 4
 177.668 375.3 97.3379 454.697 97.3379 552.525 c 4
58.7646 202.245 m 4
 58.7646 321.94 155.909 419.085 275.605 419.085 c 4
 395.301 419.085 492.445 321.94 492.445 202.245 c 4
 492.445 82.5488 395.301 -14.5947 275.605 -14.5947 c 4
 155.909 -14.5947 58.7646 82.5488 58.7646 202.245 c 4
156.76 202.245 m 4
 156.76 267.848 210.003 321.09 275.605 321.09 c 4
 341.207 321.09 394.45 267.848 394.45 202.245 c 4
 394.45 136.643 341.207 83.4004 275.605 83.4004 c 4
 210.003 83.4004 156.76 136.643 156.76 202.245 c 4
275.605 202.245 m 29
EndSplineSet
Fore
434 199 m 1
 434 209.584 432.887 219.97 430.751 230.021 c 0
 416.939 294.999 360.346 346 285 346 c 1
 198 346 141 274 141 201 c 1
 141 190.359 142.102 180.096 144.186 170.289 c 0
 158.36 103.602 218 58 286 58 c 1
 376 58 434.001 130 434 199 c 1
218 404 m 1
 240 413 256.001 419 285.001 419 c 0
 390.471 419 480.745 346.061 502.181 245.217 c 0
 505.337 230.368 507 214.915 507 199 c 1
 506.999 98 420 -15 284 -15 c 1
 171.405 -15 91.8174 66.7666 72.5244 157.532 c 0
 69.542 171.563 68 185.808 68.001 200 c 1
 68 300 127 383 150 425 c 1
 323 740 l 9
 385.001 703 l 17
 218 404 l 1
EndSplineSet
EndChar
StartChar: seven
Encoding: 23 55 23
OldEncoding: 55
Width: 575
Flags: HW
HStem: 0 21G<172 261> 638 73<59 424>
DStem: 424 638 532 711 172 0 261 0
Fore
532 711 m 1
 261 0 l 1
 172 0 l 1
 424 638 l 1
 59 638 l 1
 59 711 l 1
 532 711 l 1
EndSplineSet
EndChar
StartChar: eight
Encoding: 24 56 24
OldEncoding: 56
Width: 575
Flags: HW
HStem: -15 69<289 297> 361 69<291 297> 662 69<290 297>
VStem: 56 77<211 226> 90 77<549 562> 414 77<530.986 562> 451 77<193.601 226>
Back
66.7197 525.42 m 4
 66.7197 645.115 163.864 729.75 283.56 729.75 c 4
 403.256 729.75 500.4 645.115 500.4 525.42 c 4
 500.4 405.725 403.256 321.09 283.56 321.09 c 4
 163.864 321.09 66.7197 405.725 66.7197 525.42 c 4
164.715 525.42 m 4
 164.715 591.022 217.958 631.755 283.56 631.755 c 4
 349.162 631.755 402.405 591.022 402.405 525.42 c 4
 402.405 459.817 349.162 419.085 283.56 419.085 c 4
 217.958 419.085 164.715 459.817 164.715 525.42 c 4
283.56 525.42 m 29
65.6777 202.245 m 4
 65.6777 321.94 162.822 419.085 282.518 419.085 c 4
 402.213 419.085 499.357 321.94 499.357 202.245 c 4
 499.357 82.5488 402.213 -14.5947 282.518 -14.5947 c 4
 162.822 -14.5947 65.6777 82.5488 65.6777 202.245 c 4
163.673 202.245 m 4
 163.673 267.848 216.915 321.09 282.518 321.09 c 4
 348.12 321.09 401.362 267.848 401.362 202.245 c 4
 401.362 136.643 348.12 83.4004 282.518 83.4004 c 4
 216.915 83.4004 163.673 136.643 163.673 202.245 c 4
282.518 202.245 m 29
EndSplineSet
Fore
289.001 54 m 0xf2
 378.001 54 450.999 125 451.001 211 c 1
 451 222.214 449.855 232.924 447.696 243.084 c 0
 432.138 316.278 363.882 361 291 361 c 1
 203 361 133 306 133.001 211 c 0
 133 199.505 134.201 188.36 136.474 177.667 c 0
 151.799 105.569 215.85 54 289.001 54 c 0xf2
166.999 549 m 1xec
 167 538.787 168.01 529.127 169.937 520.061 c 0
 181.973 463.436 229.799 430 291 430 c 1
 361 430 414 473 413.999 549 c 1
 414 558.084 413.093 566.866 411.311 575.249 c 0
 400.54 625.923 357.787 662 290.001 662 c 1
 210.001 662 167 611 166.999 549 c 1xec
290 731 m 1
 390.663 731 469.107 671.236 487.101 586.583 c 0
 489.664 574.526 491 561.965 490.999 549 c 1xec
 491 454 430 412 399 394 c 1
 442.271 374.095 507.262 328.727 523.972 250.116 c 0
 526.569 237.891 528 224.862 528.001 211 c 1
 528 82 417 -15 289 -15 c 1
 177.188 -15 82.9277 60.541 60.873 164.3 c 0
 57.6797 179.323 56 194.938 56.001 211 c 1xf2
 56 319 134 375 181 394 c 1
 150.234 412.293 107.716 443.031 94.2598 506.335 c 0
 91.5332 519.164 89.999 533.329 89.999 549 c 1
 90 652 175 731 290 731 c 1
EndSplineSet
EndChar
StartChar: nine
Encoding: 25 57 25
OldEncoding: 57
Width: 575
Flags: HW
HStem: 294 73<297 301> 655 73<282 300>
VStem: 75 73<514 518> 441 73<500 517>
DStem: 364 309 432 288 197 10 259 -27
Back
117.719 514.89 m 5
 117.719 451.893 166.675 396.171 236.647 396.171 c 5
 304.285 396.171 351.281 451.893 351.281 509.333 c 5
 351.281 581.162 296.987 630.838 233.395 630.838 c 5
 172.93 630.838 117.719 583.247 117.719 514.89 c 5
360.246 349.645 m 5
 331.39 310.112 277.18 296.07 236.647 296.07 c 5
 97.8701 296.07 16.8887 412.277 16.8887 513.963 c 5
 16.8887 634.33 113.508 731.282 233.395 731.282 c 4
 382.473 731.282 461.705 602.272 466.389 464.402 c 4
 467.5 431.674 465.463 396.234 460.66 351.812 c 5
EndSplineSet
Fore
148 514 m 1
 148 503.416 149.112 493.03 151.249 482.979 c 0
 165.061 418.001 221.654 367 297 367 c 1
 384 367 441 439 441 512 c 1
 441 522.641 439.898 532.904 437.814 542.711 c 0
 423.64 609.398 364 655 296 655 c 1
 206 655 148.001 583 148 514 c 1
364 309 m 1
 342 300 325.999 294 296.999 294 c 0
 191.529 294 101.255 366.94 79.8193 467.784 c 0
 76.6631 482.632 75 498.086 75 514 c 1
 75.001 615 162 728 298 728 c 1
 410.596 728 490.185 646.232 509.477 555.466 c 0
 512.459 541.436 514 527.191 514 513 c 1
 514 413 455 330 432 288 c 1
 259 -27 l 9
 197 10 l 17
 364 309 l 1
EndSplineSet
EndChar
StartChar: less
Encoding: 28 60 28
OldEncoding: 60
Width: 432
Flags: HW
DStem: 46 310 142 309 294 11 391 11 294 603 391 603 46 310 142 309
Fore
294 11 m 1
 46 310 l 1
 294 603 l 1
 391 603 l 1
 142 309 l 1
 391 11 l 1
 294 11 l 1
EndSplineSet
EndChar
StartChar: equal
Encoding: 29 61 29
OldEncoding: 61
Width: 463
Flags: HW
HStem: 175 69<37 428> 354 69<37 428>
Fore
37.001 244 m 1
 428 244 l 1
 428 175 l 1
 37 175 l 1
 37.001 244 l 1
37 423 m 1
 428 423 l 1
 428 354 l 1
 37 354 l 1
 37 423 l 1
EndSplineSet
EndChar
StartChar: greater
Encoding: 30 62 30
OldEncoding: 62
Width: 438
Flags: HW
DStem: 50 603 147 603 298 309 394 310 298 309 394 310 50 10 147 10
Fore
147 10 m 1
 50 10 l 1
 298 309 l 1
 50 603 l 1
 147 603 l 1
 394 310 l 1
 147 10 l 1
EndSplineSet
EndChar
StartChar: question
Encoding: 31 63 31
OldEncoding: 63
Width: 501
Flags: HW
HStem: 662 69<240 258>
VStem: 208 77<176 269> 383 77<534 544>
Back
129.27 533.76 m 0
 129.27 585.552 182.513 629.67 248.115 629.67 c 4
 313.718 629.67 366.96 585.552 366.96 533.76 c 0
 366.96 481.969 313.718 439.935 248.115 439.935 c 0
 182.513 439.935 129.27 481.969 129.27 533.76 c 0
25.0195 533.76 m 0
 25.0195 641.946 124.032 729.75 246.03 729.75 c 0
 368.027 729.75 467.04 641.946 467.04 533.76 c 0
 467.04 425.573 368.027 337.77 246.03 337.77 c 0
 124.032 337.77 25.0195 425.573 25.0195 533.76 c 0
EndSplineSet
Fore
285 269 m 5
 285 176 l 5
 208 176 l 5
 208 271 l 4
 208 381 382.999 402 383 534 c 1
 382.999 545.595 381.88 556.544 379.703 566.786 c 0
 367.047 626.328 318.672 662 247.001 662 c 1
 162.001 662 104 584 104 530 c 1
 33 542 l 1
 44.999 648 133 731 244 731 c 1
 342.232 731 434.311 680.229 455.464 580.71 c 0
 458.429 566.762 460 551.857 460.001 536 c 1
 460 388 285 346 285 269 c 5
EndSplineSet
Ref: 14 46 S 1 0 0 1 148 0
EndChar
StartChar: at
Encoding: 32 64 32
OldEncoding: 64
Width: 813
Flags: HW
HStem: -17 62<398 410> 190 62<398 410> 204 63<627 634> 462 61<398 410> 668 62<398 410>
VStem: 25 62<334 368> 231 63<357 368> 495 61<357 368> 706 63<382 400>
Back
534.906 356.863 m 4
 534.906 402.268 571.756 439.116 617.16 439.116 c 4
 662.564 439.116 699.413 402.268 699.413 356.863 c 4
 699.413 311.459 662.564 274.61 617.16 274.61 c 4
 571.756 274.61 534.906 311.459 534.906 356.863 c 4
473.295 356.535 m 0
 473.295 435.948 537.746 500.4 617.16 500.4 c 0
 696.573 500.4 761.025 435.948 761.025 356.535 c 0
 761.025 277.121 696.573 212.67 617.16 212.67 c 0
 537.746 212.67 473.295 277.121 473.295 356.535 c 0
283.977 356.765 m 0
 283.977 413.998 331.035 461.056 388.269 461.056 c 0
 445.502 461.056 492.561 413.998 492.561 356.765 c 0
 492.561 299.531 445.502 252.473 388.269 252.473 c 0
 331.035 252.473 283.977 299.531 283.977 356.765 c 0
76.9365 356.603 m 0
 76.9365 528.693 215.72 667.477 387.81 667.477 c 0
 559.9 667.477 698.684 528.693 698.684 356.603 c 0
 698.684 184.512 559.9 45.7295 387.81 45.7295 c 0
 215.72 45.7295 76.9365 184.512 76.9365 356.603 c 0
14.5947 356.535 m 0
 14.5947 562.95 181.395 729.75 387.81 729.75 c 0
 594.225 729.75 761.025 562.95 761.025 356.535 c 0
 761.025 150.12 594.225 -16.6797 387.81 -16.6797 c 0
 181.395 -16.6797 14.5947 150.12 14.5947 356.535 c 0
221.01 356.535 m 0
 221.01 448.275 296.07 523.335 387.81 523.335 c 0
 479.55 523.335 554.61 448.275 554.61 356.535 c 0
 554.61 264.795 479.55 189.735 387.81 189.735 c 0
 296.07 189.735 221.01 264.795 221.01 356.535 c 0
EndSplineSet
Fore
578.999 104 m 1xbf80
 617.001 54 l 17
 555 9 480 -17 398 -17 c 0
 218.093 -17 69.1543 109.147 33.251 278.062 c 0
 27.8438 303.501 25 329.908 25 357 c 0
 25 563 191 730 398 730 c 0
 579.545 730 729.246 601.074 762.23 445.891 c 0
 766.674 424.987 769 403.606 768.999 382 c 4
 769 280 690 204 631.999 204 c 0xbf80
 595.999 204 553 225 526.999 253 c 1
 498 214 450 190 398 190 c 0xdf80
 317.89 190 250.668 246.868 234.632 322.31 c 0
 232.252 333.506 231 345.111 231 357 c 0
 231.001 448 306 523 398 523 c 0
 477.103 523 536.984 464.597 552.219 392.922 c 0
 554.703 381.236 556 369.196 556 357 c 0
 556 350.887 556.699 344.647 558.017 338.446 c 0
 565.755 302.044 594.822 267 629 267 c 0
 664 267 706.001 320 705.999 382 c 4
 706 398.604 704.181 415.235 700.689 431.66 c 0
 674.323 555.706 552.538 668 397.999 668 c 0
 222.999 668 87 523 87 355 c 0
 87 333.276 89.3018 311.958 93.6904 291.308 c 0
 123.043 153.215 245.765 45 398 45 c 0
 460 45 532 71 578.999 104 c 1xbf80
294 357 m 0
 294 348.989 294.827 341.271 296.393 333.907 c 0
 306.745 285.202 349.354 252 398 252 c 0xdf80
 458 252 495 300 495 357 c 0
 495 363.81 494.253 370.572 492.846 377.191 c 0
 483.098 423.052 441.695 462 398 462 c 0
 344 462 294 415 294 357 c 0
EndSplineSet
EndChar
StartChar: A
Encoding: 33 65 0
OldEncoding: 65
Width: 656
Flags: HW
HStem: 0 21G<40 121 531 614> 247 56<231 448> 691 20G<296 358>
DStem: 296 711 205 247 40 0 121 0
Fore
327 613 m 1
 230.999 303 l 1
 425.999 303 l 1
 327 613 l 1
448.001 247 m 1
 205.001 247 l 0
 121 0 l 0
 40 0 l 1
 296 711 l 0
 358 711 l 17
 614 0 l 1
 531 0 l 1
 448.001 247 l 1
EndSplineSet
KernsSLIF: 35 -39 0 0 87 -46 0 0 86 -80 0 0 54 -104 0 0 52 -48 0 0
EndChar
StartChar: B
Encoding: 34 66 1
OldEncoding: 66
Width: 596
Flags: HW
HStem: 0 69<141 321> 344 68<257 297> 642 69<64 273>
VStem: 64 77<0 345 0 643> 420 78<527 529> 459 76<191.742 212>
Back
165 530 m 4
 165 607.28 227.72 670 305 670 c 4
 382.28 670 445 607.28 445 530 c 4
 445 452.72 382.28 390 305 390 c 4
 227.72 390 165 452.72 165 530 c 4
128 198 m 4
 128 295.152 206.848 374 304 374 c 4
 401.152 374 480 295.152 480 198 c 4
 480 100.848 401.152 22 304 22 c 4
 206.848 22 128 100.848 128 198 c 4
EndSplineSet
Fore
141 345 m 1xf4
 141 69 l 1
 297 69 l 1
 414 69 459 140 459 210 c 0
 458.999 220.575 457.973 231.012 455.826 241.113 c 0
 443.761 297.876 396.324 344 297 344 c 1
 284 344 157 345 141 345 c 1xf4
141 643 m 1
 141 413 l 1
 160 413 241 412 257 412 c 1
 398 412 420 484 420.001 527 c 1xf8
 420 534.507 419.33 542.896 417.473 551.634 c 0
 408.691 592.945 373.385 642 257 642 c 1
 242 642 159 643 141 643 c 1
64 711 m 1
 257 711 l 1
 417.262 710.152 479.02 635.246 494.095 564.321 c 0
 496.799 551.602 498 539.012 498.001 527 c 1xf8
 498 447 426.999 382 373.999 382 c 1
 472.916 382 518.154 302.501 530.997 242.08 c 0
 533.734 229.202 535 217.19 535 207 c 1xf4
 535 140 510 0 297 0 c 1
 64 0 l 1
 64 711 l 1
EndSplineSet
EndChar
StartChar: C
Encoding: 35 67 2
OldEncoding: 67
Width: 616
Flags: HW
HStem: -15 69<347 359> 661 69<348 359>
VStem: 54 81<354 370>
Fore
566 110 m 4
 519 38 459 -15 347 -15 c 5
 190.899 -14.1914 95.6367 103.715 64.917 248.242 c 0
 57.6553 282.405 54 318.056 54 354 c 5
 54 544 161 730 348 730 c 4
 457 730 515 684 559.001 615 c 13
 534.039 602.52 495.001 583 495.001 583 c 4
 466.001 624 406 661 348 661 c 5
 346.721 661.005 l 0
 214.488 661.005 135 506.509 135 354 c 5
 135 324.498 138.127 295.147 144.109 266.999 c 0
 168.952 150.124 243.038 54 347.001 54 c 5
 417.001 54 462 79 503 143 c 13
 527.57 130.13 566 110 566 110 c 4
EndSplineSet
EndChar
StartChar: D
Encoding: 36 68 3
OldEncoding: 68
Width: 616
Flags: HW
HStem: 0 69<141 289> 642 69<64 289>
VStem: 64 77<0 642> 487 81<355 385>
Fore
487 355 m 1
 487 386.494 483.911 416.169 478.077 443.618 c 0
 452.418 564.335 373.656 642 271 642 c 1
 141 642 l 1
 141 69 l 1
 271 69 l 1
 397 69 486.999 186 487 355 c 1
568 355 m 1
 568 156 447 0 271 0 c 1
 64 0 l 1
 64 711 l 1
 271 711 l 1
 419.445 711 525.937 603.713 557.969 453.017 c 0
 564.562 421.998 568.001 389.14 568 355 c 1
EndSplineSet
EndChar
StartChar: E
Encoding: 37 69 4
OldEncoding: 69
Width: 578
Flags: HW
HStem: 0 69<141 514> 330 69<141 493> 642 69<64 514>
VStem: 64 77<0 330 0 642>
Fore
64 711 m 0
 514 711 l 1
 514 642 l 0
 141 642 l 0
 141.001 399 l 1
 493.001 399 l 1
 493 330 l 0
 141 330 l 0
 141 69 l 0
 514 69 l 0
 514 0 l 0
 64 0 l 1
 64 711 l 0
EndSplineSet
KernsSLIF: 50 20 0 0
EndChar
StartChar: F
Encoding: 38 70 5
OldEncoding: 70
Width: 580
Flags: HW
HStem: 0 21G<64 141> 330 69<141 493> 642 69<64 514>
VStem: 64 77<0 330 0 642>
Fore
64 711 m 1
 514 711 l 1
 514 642 l 25
 141 642 l 25
 141.001 399 l 1
 493.001 399 l 1
 493 330 l 25
 141 330 l 1
 141 0 l 1
 64 0 l 1
 64 711 l 1
EndSplineSet
EndChar
StartChar: G
Encoding: 39 71 6
OldEncoding: 71
Width: 686
Flags: HW
HStem: -14 68<347 359> 301 69<349 541> 661 69<348 359>
VStem: 54 81<357 372> 541 76<299 328>
Fore
347 -14 m 0
 181.291 -14 94.1611 114.243 65.1758 250.606 c 0
 57.6035 286.231 54 322.409 54 357 c 1
 54 523 147 730 348 730 c 0
 457 730 516 684 560.001 615 c 9
 533.869 602.13 493 582 493 582 c 0
 459 629 422 661 348 661 c 1
 207 661 134.999 490 135 357 c 1
 135.001 327.853 138.17 297.05 144.623 266.691 c 0
 167.838 157.476 233.54 54 347.001 54 c 0
 500.001 54 541 210 540.999 301 c 1
 348.999 301 l 1
 349 370 l 1
 617 370 l 1
 617 328 l 1
 616.999 174 546 -14 347 -14 c 0
EndSplineSet
KernsSLIF: 52 -33 0 0
EndChar
StartChar: H
Encoding: 40 72 7
OldEncoding: 72
Width: 605
Flags: HW
HStem: 329 69<141 464> 691 20G<64 141 464 541>
VStem: 64 77<0 329 0 711> 464 77<0 711>
Fore
64 711 m 0
 141 711 l 1
 141.001 398 l 1
 464.001 398 l 1
 464 711 l 1
 541 711 l 1
 541 0 l 1
 464 0 l 1
 464 329 l 0
 141 329 l 1
 141 0 l 1
 64 0 l 1
 64 711 l 0
EndSplineSet
EndChar
StartChar: I
Encoding: 41 73 8
OldEncoding: 73
Width: 237
Flags: HW
HStem: 0 21G<80 157> 691 20G<80 157>
VStem: 80 77<0 711>
Fore
80 0 m 1
 80 711 l 1
 157 711 l 1
 157 0 l 1
 80 0 l 1
EndSplineSet
EndChar
StartChar: J
Encoding: 42 74 9
OldEncoding: 74
Width: 577
Flags: HW
HStem: -10 73<281 285> 691 20G<430 507>
VStem: 430 77<261 711>
Fore
60.001 261 m 0
 129.001 261 l 1
 129.001 243.979 130.854 226.769 134.425 209.972 c 0
 150.991 132.036 204.489 63 281 63 c 1
 375 63 429.999 163 430.001 261 c 2
 430 711 l 1
 507 711 l 1
 507.001 261 l 2
 507 102 415 -10 281 -10 c 1
 171.197 -10 92.0664 70.4268 67.8027 184.576 c 0
 62.6768 208.693 60 234.314 60.001 261 c 0
EndSplineSet
EndChar
StartChar: K
Encoding: 43 75 10
OldEncoding: 75
Width: 625
Flags: HW
HStem: 0 21G<64 141 507 608> 691 20G<64 141 486 580>
VStem: 64 77<0 269 0 711>
DStem: 189 319 238 370 507 0 608 0 486 711 580 711 141 365 238 370
Fore
64 711 m 0
 141 711 l 1
 141 365 l 1
 486 711 l 1
 580 711 l 1
 238 370 l 1
 608 0 l 1
 507 0 l 1
 189 319 l 1
 141 269 l 1
 141 0 l 1
 64 0 l 1
 64 711 l 0
EndSplineSet
KernsSLIF: 47 -53 0 0
EndChar
StartChar: L
Encoding: 44 76 11
OldEncoding: 76
Width: 560
Flags: HW
HStem: 0 69<140 515> 691 20G<64 141>
VStem: 64 77<0 711>
Fore
64 711 m 1
 141 711 l 1
 141 69 l 1
 515 69 l 1
 515 0 l 1
 64 0 l 1
 64 711 l 1
EndSplineSet
EndChar
StartChar: M
Encoding: 45 77 1
OldEncoding: 77
Width: 783
Flags: HW
HStem: 0 21G<64 139 644 719> 691 20G<64 169 618 719>
VStem: 64 75<0 588> 644 75<0 711>
DStem: 139 588 169 711 348 8 393 102 618 711 644 588 393 102 435 8
Fore
64 0 m 1
 64 711 l 2
 169 711 l 1
 393 102 l 2
 618 711 l 1
 719 711 l 1
 719 0 l 1
 644 0 l 25
 644 588 l 1
 435 8 l 0
 348 8 l 1
 139 588 l 0
 139 0 l 1
 64 0 l 1
EndSplineSet
EndChar
StartChar: N
Encoding: 46 78 2
OldEncoding: 78
Width: 641
Flags: HW
HStem: 0 21G<64 141 506 577> 691 20G<64 139 500 577>
VStem: 64 77<0 581> 500 77<144 711>
DStem: 141 581 139 711 506 0 500 144
Fore
64 0 m 1
 64 711 l 2
 139 711 l 1
 500 144 l 25
 500 711 l 1
 577 711 l 1
 577 0 l 0
 506 0 l 1
 141 581 l 0
 141 0 l 1
 64 0 l 1
EndSplineSet
EndChar
StartChar: O
Encoding: 47 79 3
OldEncoding: 79
Width: 671
Flags: HW
HStem: -15 69<335 355> 661 69<335 355>
VStem: 50 81<354 386> 540 81<354 386>
Fore
540 354 m 0
 540 389.219 536.654 427.499 528.747 464.699 c 0
 507.019 566.926 450.844 661 335 661 c 0
 178 661 131.001 486 131 354 c 1
 131 319.887 134.255 283.197 141.824 247.585 c 0
 163.322 146.443 219.624 54 335.001 54 c 1
 492.001 54 540 223 540 354 c 0
50 354 m 1
 50 511 126 730 335 730 c 1
 498.763 730 581.037 596.821 609.328 463.722 c 0
 617.315 426.142 621 388.568 621 354 c 1
 621 198 544 -15 335 -15 c 1
 171.849 -15 89.2949 116.05 61.2803 247.848 c 0
 53.5791 284.077 50 320.364 50 354 c 1
EndSplineSet
KernsSLIF: 33 -48 0 0 52 -55 0 0
EndChar
StartChar: P
Encoding: 48 80 4
OldEncoding: 80
Width: 557
Flags: HW
HStem: 0 21G<64 141> 308 70<141 273> 642 69<141 257>
VStem: 64 77<0 308 0 642> 430 79<511 529>
Fore
141.001 378 m 5
 242.001 378 l 5
 398.001 378 430.001 448 430 511 c 5
 430 520.403 429.182 530.42 427.025 540.566 c 0
 416.567 589.766 374.645 642 242 642 c 5
 141 642 l 5
 141.001 378 l 5
64 711 m 4
 141 711 l 5
 242 711 l 5
 396.028 710.125 484.955 645.679 504.757 552.518 c 0
 507.581 539.229 509 525.356 509 511 c 4
 509 401 427.001 308 242.001 308 c 5
 141.001 308 l 5
 141 0 l 5
 64 0 l 5
 64 711 l 4
EndSplineSet
KernsSLIF: 33 -67 0 0
EndChar
StartChar: Q
Encoding: 49 81 5
OldEncoding: 81
Width: 689
Flags: HW
HStem: -15 69<321 356> 661 69<321 354>
VStem: 50 81<354 385> 544 81<354 385>
DStem: 354 160 397 217 446 91 494 144 506 46 553 100 590 -16 634 41
Back
621.604 40.8271 m 5
 579.351 -16.0967 l 5
 341.614 160.365 l 5
 383.866 217.288 l 5
 621.604 40.8271 l 5
537.93 354.45 m 0
 537.93 485.805 485.805 660.945 328.388 660.945 c 0
 170.97 660.945 118.845 485.805 118.845 354.45 c 1
 118.845 223.095 172.013 54.21 328.388 54.21 c 1
 484.763 54.21 537.93 223.095 537.93 354.45 c 0
45.8701 354.45 m 1
 45.8701 510.825 118.845 729.75 328.388 729.75 c 1
 537.93 729.75 610.905 510.825 610.905 354.45 c 1
 610.905 198.075 536.888 -14.5947 328.388 -14.5947 c 1
 119.888 -14.5947 45.8701 198.075 45.8701 354.45 c 1
EndSplineSet
Fore
544 354 m 1
 544 389.318 540.598 426.059 533.101 461.33 c 0
 510.454 567.87 450.449 661 334 661 c 1
 199 661 131 511 131 354 c 1
 131 322.723 134.057 287.369 141.534 252.189 c 0
 162.746 152.396 219.528 54 343.001 54 c 1
 376.001 54 423 68 446 91 c 1
 354 160 l 1
 397 217 l 1
 494 144 l 1
 528 192 544 258 544 354 c 1
50 354 m 1
 50 511 130 730 335 730 c 1
 500.803 730 585.099 594.774 613.604 460.664 c 0
 621.376 424.105 625 387.63 625 354 c 1
 625.001 247 591 150 553 100 c 1
 634 41 l 1
 590 -16 l 1
 505.999 46 l 1
 465.001 13 420 -15 341 -15 c 1
 173.396 -15 89.3799 115.644 61.1807 248.311 c 0
 53.543 284.244 50 320.326 50 354 c 1
EndSplineSet
EndChar
StartChar: R
Encoding: 50 82 6
OldEncoding: 82
Width: 558
Flags: HW
HStem: 0 21G<64 141 455.457 544.237> 642 69<141 257>
VStem: 64 77<0 308 0 642> 430 80<511 529>
DStem: 246 308.015 332 316.594 455.457 0 544.237 0
Back
131 378 m 5
 232 378 l 5
 388 378 420 448 420 511 c 5
 420 566 392 642 232 642 c 5
 131 642 l 5
 131 378 l 5
54 711 m 4
 131 711 l 5
 232 711 l 5
 408 710 499 626 499 511 c 4
 499 401 417 308 232 308 c 5
 131 308 l 5
 131 0 l 5
 54 0 l 5
 54 711 l 4
EndSplineSet
Fore
141.001 378 m 1
 242.001 378 l 1
 401.001 378 429.999 452 430 511 c 1
 430 520.403 429.182 530.42 427.025 540.566 c 0
 416.567 589.766 374.645 642 242 642 c 1
 141 642 l 1
 141.001 378 l 1
455.457 0 m 1
 246 308.015 l 1
 141.001 308 l 1
 141 0 l 1
 64 0 l 1
 64 711 l 0
 141 711 l 1
 242 711 l 1
 401.212 710.125 486.96 639.611 505.936 550.337 c 0
 508.651 537.559 510 524.396 510 511 c 0
 510 415 441 336 332 316.594 c 1
 544.237 0 l 1
 455.457 0 l 1
EndSplineSet
EndChar
StartChar: S
Encoding: 51 83 7
OldEncoding: 83
Width: 587
Flags: HW
HStem: -15 69<288 294> 661 69<288 310>
VStem: 66 79<535 546>
Back
37.0195 193 m 4
 37.0195 307.816 143.145 401 278.835 401 c 0
 414.525 401 520.65 307.816 520.65 193 c 0
 520.65 78.1836 414.525 -15 278.835 -15 c 0
 143.145 -15 37.0195 78.1836 37.0195 193 c 4
114.255 194 m 0
 114.255 271.28 187.515 334 277.78 334 c 0
 368.045 334 441.305 271.28 441.305 194 c 0
 441.305 116.72 368.045 54 277.78 54 c 0
 187.515 54 114.255 116.72 114.255 194 c 0
56 540 m 0
 56 644.88 155.008 730 277 730 c 0
 398.992 730 498 644.88 498 540 c 0
 498 435.12 398.992 350 277 350 c 0
 155.008 350 56 435.12 56 540 c 0
135 541 m 0
 135 607.24 198.168 661 276 661 c 0
 353.832 661 417 607.24 417 541 c 0
 417 474.76 353.832 421 276 421 c 0
 198.168 421 135 474.76 135 541 c 0
EndSplineSet
Fore
37 140 m 1
 103 179 l 1
 147 111 197.001 54 288.001 54 c 1
 377.001 54 451 117 451 194 c 1
 451.429 201.933 450.812 209.601 449.237 217.007 c 0
 436.128 278.682 356.637 322.109 262 348 c 0
 184.19 369.288 88.3779 412.679 69.3672 502.119 c 0
 67.1709 512.453 66 523.4 66 535 c 1
 66 655 174 730 288 730 c 1
 405 730 466 678 511.999 610 c 1
 451 571 l 1
 422 621 366 661 288 661 c 1
 213 661 145.001 615 145 535 c 1
 145 527.825 145.712 521.1 147.054 514.788 c 0
 162.168 443.681 257.244 424.811 315.999 402 c 0
 392.148 372.438 502.806 342.873 525.748 234.941 c 0
 528.415 222.394 529.896 208.788 530 194 c 1
 530 72 420 -14 288 -15 c 1
 179 -14 102 38 37 140 c 1
EndSplineSet
EndChar
StartChar: T
Encoding: 52 84 8
OldEncoding: 84
Width: 627
Flags: HW
HStem: 0 21G<281 358> 642 69<48 281 48 581>
VStem: 281 77<0 642>
Fore
48 711 m 0
 581 711 l 1
 581 642 l 0
 358 642 l 1
 358 0 l 1
 281 0 l 1
 281 642 l 1
 48 642 l 1
 48 711 l 0
EndSplineSet
KernsSLIF: 85 -66 0 0 33 -54 0 0
EndChar
StartChar: U
Encoding: 53 85 9
OldEncoding: 85
Width: 638
Flags: HW
HStem: -15 69<319 337> 691 20G<64 143 495 574>
VStem: 64 79<315 711> 495 79<315 711>
Back
133 711 m 5
 54 711 l 5
 54 323 l 5
 54 117 150 -15 309 -15 c 4
 468.003 -15 564 117 564 323 c 5
 564 711 l 5
 485 711 l 5
 485 323 l 5
 485 142 404 54 309 54 c 5
 214 54 134 142 133 323 c 5
 133 711 l 5
EndSplineSet
Fore
495 711 m 1
 574 711 l 1
 574 315 l 5
 574 109 479 -15 319 -15 c 0
 190.746 -15 104.258 64.6738 74.9854 202.391 c 0
 67.7393 236.48 64 274.126 64 315 c 5
 64 711 l 1
 143 711 l 1
 143 315 l 5
 143 278.447 146.304 246.013 152.358 217.525 c 0
 176.287 104.951 243.186 54 319.001 54 c 1
 414.001 54 494.999 134 495 315 c 5
 495 711 l 1
EndSplineSet
EndChar
StartChar: V
Encoding: 54 86 10
OldEncoding: 86
Width: 628
Flags: HW
HStem: 0 21G<262 369> 691 20G<44 127 504 584>
DStem: 44 711 127 711 262 0 315 82 504 711 584 711 315 82 369 0
Fore
504 711 m 1
 584 711 l 1
 369 0 l 1
 262 0 l 1
 44 711 l 1
 127 711 l 1
 315 82 l 1
 504 711 l 1
EndSplineSet
KernsSLIF: 69 -32 0 0 33 -119 0 0 37 -34 0 0
EndChar
StartChar: W
Encoding: 55 87 11
OldEncoding: 87
Width: 790
Flags: HW
HStem: 0 21G<157 266 526 633> 691 20G<46 124 667 745>
DStem: 46 711 124 711 157 0 214 89 348 693 396 600 214 89 266 0 396 600 443 693 526 0 577 89 667 711 745 711 577 89 633 0
Fore
46 711 m 1
 124 711 l 5
 214 89 l 0
 348 693 l 1
 443 693 l 0
 577.001 89 l 1
 667 711 l 25
 745 711 l 1
 633 0 l 1
 526 0 l 1
 396 600 l 2
 266 0 l 1
 157 0 l 2
 46 711 l 1
EndSplineSet
KernsSLIF: 69 -13 0 0 33 -47 0 0
EndChar
StartChar: X
Encoding: 56 88 12
OldEncoding: 88
Width: 613
Flags: HW
HStem: 0 21G<44 131 479 572> 691 20G<41 130 480 569>
DStem: 266 356 307 286 44 0 131 0 307 286 348 356 479 0 572 0
Fore
41 711 m 0
 130 711 l 1
 307 415 l 1
 480 711 l 1
 569 711 l 1
 348 356 l 1
 572 0 l 1
 479 0 l 1
 307 286 l 1
 131 0 l 1
 44 0 l 1
 266 356 l 1
 41 711 l 0
EndSplineSet
EndChar
StartChar: Y
Encoding: 57 89 13
OldEncoding: 89
Width: 596
Flags: HW
HStem: 0 21G<259 336> 691 20G<42 124 472 554>
VStem: 259 77<0 365>
DStem: 42 711 124 711 259 365 298 418
Fore
42 711 m 1
 124 711 l 1
 298 418 l 1
 472 711 l 1
 554 711 l 1
 336 365 l 1
 336 0 l 1
 259 0 l 1
 259 365 l 1
 42 711 l 1
EndSplineSet
KernsSLIF: 33 -93 0 0 65 -62 0 0
EndChar
StartChar: Z
Encoding: 58 90 14
OldEncoding: 90
Width: 667
Flags: HW
HStem: 0 69<185 613> 642 69<68 480>
DStem: 480 642 607 711 54 0 185 69
Fore
68 711 m 1
 607 711 l 1
 185 69 l 1
 613 69 l 1
 613 0 l 1
 54 0 l 1
 480 642 l 1
 68 642 l 1
 68 711 l 1
EndSplineSet
EndChar
StartChar: bracketleft
Encoding: 59 91 15
OldEncoding: 91
Width: 326
Flags: HW
HStem: -47 68<142 262> 678 69<69 262>
VStem: 69 73<-47 678>
Fore
262 -47 m 0
 69 -47 l 1
 68.999 747 l 0
 261.999 747 l 1
 262 678 l 1
 142 678 l 1
 142 21 l 1
 262 21 l 1
 262 -47 l 0
EndSplineSet
EndChar
StartChar: backslash
Encoding: 60 92 16
OldEncoding: 92
Width: 416
Flags: HW
HStem: 0 21G<342 425>
DStem: -9 754 75 754 342 0 425 0
Fore
342 0 m 1
 -9 754 l 1
 75 754 l 0
 425 0 l 1
 342 0 l 1
EndSplineSet
KernsSLIF: 60 -70 0 0
EndChar
StartChar: bracketright
Encoding: 61 93 17
OldEncoding: 93
Width: 332
Flags: HW
HStem: -47 69<68 261> 678 69<68 188>
VStem: 188 73<22 747>
Fore
68 -47 m 0
 68 22 l 1
 188 22 l 1
 188 678 l 1
 68 678 l 1
 67.999 747 l 1
 260.999 747 l 0
 261 -47 l 1
 68 -47 l 0
EndSplineSet
EndChar
StartChar: asciicircum
Encoding: 62 94 18
OldEncoding: 94
Width: 473
Flags: HW
HStem: 709 20G<205 269>
DStem: 205 729 238 665 70 562 161 562
Fore
406 561 m 1
 314 561 l 1
 238.001 665 l 1
 161 562 l 0
 70 562 l 1
 205 729 l 1
 269 729 l 1
 406 561 l 1
EndSplineSet
EndChar
StartChar: underscore
Encoding: 63 95 19
OldEncoding: 95
Width: 626
Flags: HW
HStem: -113 69<48 580>
Fore
48 -113 m 1
 48 -44 l 1
 579.999 -44 l 1
 580 -113 l 1
 48 -113 l 1
EndSplineSet
EndChar
StartChar: grave
Encoding: 64 96 20
OldEncoding: 96
Width: 272
Flags: HWO
Fore
178.455 566.5 m 5
 60.2881 706.592 l 5
 56.3115 711.865 53.8984 717.268 52.7754 722.549 c 0
 49.6484 737.259 56.5352 751.024 67.5527 758.411 c 4
 73.9512 763.236 81.7812 766.162 89.8281 766.162 c 0
 99.8574 766.162 110.222 761.618 118.573 750.544 c 5
 220.771 598.411 l 5
 222.441 595.86 223.511 593.216 224.075 590.562 c 0
 226.292 580.134 220.7 569.55 213.062 563.791 c 4
 208.329 560.222 202.375 557.87 196.302 557.87 c 0
 190.08 557.87 183.735 560.339 178.455 566.5 c 5
EndSplineSet
EndChar
StartChar: a
Encoding: 65 97 21
OldEncoding: 97
Width: 505
Flags: HW
HStem: -14 66<236 255> 294 66<236 255> 466 66<240 255>
VStem: 46 75<173 179>
Back
70 720 m 29
 70 -26 l 29
210 716 m 29
 210 -30 l 29
140 -34 m 29
 140 712 l 29
 140 -34 l 29
280 718 m 29
 280 -28 l 29
350 716 m 29
 350 -30 l 29
420 -24 m 29
 420 722 l 29
 420 -24 l 29
70 720 m 29
 70 -26 l 29
210 716 m 29
 210 -30 l 29
140 -34 m 29
 140 712 l 29
 140 -34 l 29
280 718 m 29
 280 -28 l 29
350 716 m 29
 350 -30 l 29
420 -24 m 29
 420 722 l 29
 420 -24 l 29
70 720 m 29
 70 -26 l 29
210 716 m 29
 210 -30 l 29
140 -34 m 29
 140 712 l 29
 140 -34 l 29
280 718 m 29
 280 -28 l 29
350 716 m 29
 350 -30 l 29
420 -24 m 29
 420 722 l 29
 420 -24 l 29
70 720 m 29
 70 -26 l 29
210 716 m 29
 210 -30 l 29
140 -34 m 29
 140 712 l 29
 140 -34 l 29
280 718 m 29
 280 -28 l 29
350 716 m 29
 350 -30 l 29
420 -24 m 29
 420 722 l 29
 420 -24 l 29
70 720 m 29
 70 -26 l 29
210 716 m 29
 210 -30 l 29
140 -34 m 29
 140 712 l 29
 140 -34 l 29
280 718 m 29
 280 -28 l 29
350 716 m 29
 350 -30 l 29
420 -24 m 29
 420 722 l 29
 420 -24 l 29
70 720 m 29
 70 -26 l 29
210 716 m 29
 210 -30 l 29
140 -34 m 29
 140 712 l 29
 140 -34 l 29
280 718 m 29
 280 -28 l 29
350 716 m 29
 350 -30 l 29
420 -24 m 29
 420 722 l 29
 420 -24 l 29
70 720 m 29
 70 -26 l 29
210 716 m 29
 210 -30 l 29
140 -34 m 29
 140 712 l 29
 140 -34 l 29
280 718 m 29
 280 -28 l 29
350 716 m 29
 350 -30 l 29
420 -24 m 29
 420 722 l 29
 420 -24 l 29
70 720 m 29
 70 -26 l 29
210 716 m 29
 210 -30 l 29
140 -34 m 29
 140 712 l 29
 140 -34 l 29
280 718 m 29
 280 -28 l 29
350 716 m 29
 350 -30 l 29
420 -24 m 29
 420 722 l 29
 420 -24 l 29
70 720 m 29
 70 -26 l 29
210 716 m 29
 210 -30 l 29
140 -34 m 29
 140 712 l 29
 140 -34 l 29
280 718 m 29
 280 -28 l 29
350 716 m 29
 350 -30 l 29
420 -24 m 29
 420 722 l 29
 420 -24 l 29
70 720 m 29
 70 -26 l 29
210 716 m 29
 210 -30 l 29
140 -34 m 29
 140 712 l 29
 140 -34 l 29
280 718 m 29
 280 -28 l 29
350 716 m 29
 350 -30 l 29
420 -24 m 29
 420 722 l 29
 420 -24 l 29
70 720 m 29
 70 -26 l 29
210 716 m 29
 210 -30 l 29
140 -34 m 29
 140 712 l 29
 140 -34 l 29
280 718 m 29
 280 -28 l 29
350 716 m 29
 350 -30 l 29
420 -24 m 29
 420 722 l 29
 420 -24 l 29
70 720 m 29
 70 -26 l 29
210 716 m 29
 210 -30 l 29
140 -34 m 29
 140 712 l 29
 140 -34 l 29
280 718 m 29
 280 -28 l 29
350 716 m 29
 350 -30 l 29
420 -24 m 29
 420 722 l 29
 420 -24 l 29
70 720 m 29
 70 -26 l 29
210 716 m 29
 210 -30 l 29
140 -34 m 29
 140 712 l 29
 140 -34 l 29
280 718 m 29
 280 -28 l 29
350 716 m 29
 350 -30 l 29
420 -24 m 29
 420 722 l 29
 420 -24 l 29
70 720 m 29
 70 -26 l 29
210 716 m 29
 210 -30 l 29
140 -34 m 29
 140 712 l 29
 140 -34 l 29
280 718 m 29
 280 -28 l 29
350 716 m 29
 350 -30 l 29
420 -24 m 29
 420 722 l 29
 420 -24 l 29
70 720 m 29
 70 -26 l 29
210 716 m 29
 210 -30 l 29
140 -34 m 29
 140 712 l 29
 140 -34 l 29
280 718 m 29
 280 -28 l 29
350 716 m 29
 350 -30 l 29
420 -24 m 29
 420 722 l 29
 420 -24 l 29
70 720 m 29
 70 -26 l 29
210 716 m 29
 210 -30 l 29
140 -34 m 29
 140 712 l 29
 140 -34 l 29
280 718 m 29
 280 -28 l 29
350 716 m 29
 350 -30 l 29
420 -24 m 29
 420 722 l 29
 420 -24 l 29
70 720 m 25
 70 -26 l 25
210 716 m 25
 210 -30 l 25
140 -34 m 25
 140 712 l 25
 140 -34 l 25
280 718 m 25
 280 -28 l 25
350 716 m 25
 350 -30 l 25
420 -24 m 25
 420 722 l 25
 420 -24 l 25
70 720 m 25
 70 -26 l 25
210 716 m 25
 210 -30 l 25
140 -34 m 25
 140 712 l 25
 140 -34 l 25
280 718 m 25
 280 -28 l 25
350 716 m 25
 350 -30 l 25
420 -24 m 25
 420 722 l 25
 420 -24 l 25
70 720 m 25
 70 -26 l 25
210 716 m 25
 210 -30 l 25
140 -34 m 25
 140 712 l 25
 140 -34 l 25
280 718 m 25
 280 -28 l 25
350 716 m 25
 350 -30 l 25
420 -24 m 25
 420 722 l 25
 420 -24 l 25
70 720 m 25
 70 -26 l 25
210 716 m 25
 210 -30 l 25
140 -34 m 25
 140 712 l 25
 140 -34 l 25
280 718 m 25
 280 -28 l 25
350 716 m 25
 350 -30 l 25
420 -24 m 25
 420 722 l 25
 420 -24 l 25
70 720 m 25
 70 -26 l 25
210 716 m 25
 210 -30 l 25
140 -34 m 25
 140 712 l 25
 140 -34 l 25
280 718 m 25
 280 -28 l 25
350 716 m 25
 350 -30 l 25
420 -24 m 25
 420 722 l 25
 420 -24 l 25
70 720 m 25
 70 -26 l 25
210 716 m 25
 210 -30 l 25
140 -34 m 25
 140 712 l 25
 140 -34 l 25
280 718 m 25
 280 -28 l 25
350 716 m 25
 350 -30 l 25
420 -24 m 25
 420 722 l 25
 420 -24 l 25
70 720 m 25
 70 -26 l 25
210 716 m 25
 210 -30 l 25
140 -34 m 25
 140 712 l 25
 140 -34 l 25
280 718 m 25
 280 -28 l 25
350 716 m 25
 350 -30 l 25
420 -24 m 25
 420 722 l 25
 420 -24 l 25
70 720 m 25
 70 -26 l 25
210 716 m 25
 210 -30 l 25
140 -34 m 25
 140 712 l 25
 140 -34 l 25
280 718 m 25
 280 -28 l 25
350 716 m 25
 350 -30 l 25
420 -24 m 25
 420 722 l 25
 420 -24 l 25
70 720 m 25
 70 -26 l 25
210 716 m 25
 210 -30 l 25
140 -34 m 25
 140 712 l 25
 140 -34 l 25
280 718 m 25
 280 -28 l 25
350 716 m 25
 350 -30 l 25
420 -24 m 25
 420 722 l 25
 420 -24 l 25
70 720 m 25
 70 -26 l 25
210 716 m 25
 210 -30 l 25
140 -34 m 25
 140 712 l 25
 140 -34 l 25
280 718 m 25
 280 -28 l 25
350 716 m 25
 350 -30 l 25
420 -24 m 25
 420 722 l 25
 420 -24 l 25
70 720 m 25
 70 -26 l 25
210 716 m 25
 210 -30 l 25
140 -34 m 25
 140 712 l 25
 140 -34 l 25
280 718 m 25
 280 -28 l 25
350 716 m 25
 350 -30 l 25
420 -24 m 25
 420 722 l 25
 420 -24 l 25
70 720 m 25
 70 -26 l 25
210 716 m 25
 210 -30 l 25
140 -34 m 25
 140 712 l 25
 140 -34 l 25
280 718 m 25
 280 -28 l 25
350 716 m 25
 350 -30 l 25
420 -24 m 25
 420 722 l 25
 420 -24 l 25
70 720 m 25
 70 -26 l 25
210 716 m 25
 210 -30 l 25
140 -34 m 25
 140 712 l 25
 140 -34 l 25
280 718 m 25
 280 -28 l 25
350 716 m 25
 350 -30 l 25
420 -24 m 25
 420 722 l 25
 420 -24 l 25
70 720 m 25
 70 -26 l 25
210 716 m 25
 210 -30 l 25
140 -34 m 25
 140 712 l 25
 140 -34 l 25
280 718 m 25
 280 -28 l 25
350 716 m 25
 350 -30 l 25
420 -24 m 25
 420 722 l 25
 420 -24 l 25
70 720 m 25
 70 -26 l 25
210 716 m 25
 210 -30 l 25
140 -34 m 25
 140 712 l 25
 140 -34 l 25
280 718 m 25
 280 -28 l 25
350 716 m 25
 350 -30 l 25
420 -24 m 25
 420 722 l 25
 420 -24 l 25
70 720 m 25
 70 -26 l 25
210 716 m 25
 210 -30 l 25
140 -34 m 25
 140 712 l 25
 140 -34 l 25
280 718 m 25
 280 -28 l 25
350 716 m 25
 350 -30 l 25
420 -24 m 25
 420 722 l 25
 420 -24 l 25
EndSplineSet
Fore
243.999 294 m 0
 169.999 294 121 236 121 173 c 0
 121 164.426 121.908 155.944 123.663 147.688 c 0
 134.801 95.2861 180.071 52 244 52 c 0
 306 52 360 108 360 173 c 1
 360 181.379 359.103 189.608 357.407 197.586 c 0
 345.945 251.506 298.008 294 243.999 294 c 0
238.001 360 m 0
 302.001 360 343.438 320 357.438 293 c 1
 357.439 330 l 0
 357.439 345.592 356.014 360.171 353.167 373.56 c 0
 341.047 430.583 303.169 466 240.001 466 c 0
 194.001 466 152 450 130.001 428 c 9
 115.18 447.5 92 478 92 478 c 0
 126 506 170 532 240 532 c 0
 326.83 532 401.969 480.549 422.399 384.433 c 0
 425.969 367.64 427.868 349.483 427.868 330 c 0
 427.868 270 l 0
 427.868 132 l 1
 427.868 123.411 428.672 114.594 430.468 106.147 c 0
 436.197 79.1895 452.021 56 484 56 c 1
 484 -10 l 1
 424.379 -10 375.619 11.7236 366.176 56.1504 c 0
 366 57 l 1
 354 30 308 -14 238 -14 c 1
 142.589 -14 68.2441 47.6914 50.2012 132.574 c 0
 47.4424 145.553 46 159.074 46 173 c 0
 46 278 138.001 360 238.001 360 c 0
EndSplineSet
KernsSLIF: 86 -60 0 0
EndChar
StartChar: b
Encoding: 66 98 22
OldEncoding: 98
Width: 510
Flags: HW
HStem: -14 66<264.947 281> 467 66<278 282> 690 20G<68 142>
VStem: 68 74<0 710> 386 75<263 291>
Back
70 720 m 29
 70 -26 l 29
210 716 m 29
 210 -30 l 29
140 -34 m 29
 140 712 l 29
 140 -34 l 29
280 718 m 29
 280 -28 l 29
350 716 m 29
 350 -30 l 29
420 -24 m 29
 420 722 l 29
 420 -24 l 29
EndSplineSet
Fore
142 710 m 21
 68 710 l 5
 68 0 l 5
 142 0 l 5
 142 80 l 21
 171.726 33.5264 207.342 -14.0117 277.06 -14.0117 c 0
 277.703 -14.0117 278.351 -14.0078 279 -14 c 5
 402 -14 460.999 125 461 263 c 4
 461 295.227 457.891 327.127 451.521 357.095 c 0
 430.614 455.453 374.575 533 278 533 c 5
 211 533 169.001 486 142.001 437 c 5
 142 710 l 21
386 263 m 4
 386 149 343 52 278 52 c 5
 222.447 52 165.56 108.062 146.595 197.286 c 0
 142.345 217.278 140 238.936 139.999 262 c 5
 140 404 223 467 278 467 c 4
 325.714 467 362.312 418.644 377.848 345.551 c 0
 383.15 320.603 386 292.773 386 263 c 4
EndSplineSet
EndChar
StartChar: c
Encoding: 67 99 23
OldEncoding: 99
Width: 470
Flags: HW
HStem: -15 66<267 277> 468 66<270 277>
VStem: 52 75<262 274>
Back
42 260 m 4
 42 411.8 139.664 535 260 535 c 4
 380.336 535 478 411.8 478 260 c 4
 478 108.2 380.336 -15 260 -15 c 4
 139.664 -15 42 108.2 42 260 c 4
117 259 m 4
 117 373.816 181.064 467 260 467 c 4
 338.936 467 403 373.816 403 259 c 4
 403 144.184 338.936 51 260 51 c 4
 181.064 51 117 144.184 117 259 c 4
70 720 m 29
 70 -26 l 29
210 716 m 29
 210 -30 l 29
140 -34 m 29
 140 712 l 29
 140 -34 l 29
280 718 m 29
 280 -28 l 29
350 716 m 29
 350 -30 l 29
420 -24 m 29
 420 722 l 29
 420 -24 l 29
EndSplineSet
Fore
426.001 466 m 9
 406.891 446.89 377 417 377 417 c 0
 349 445 328.001 468 270.001 468 c 1
 204.001 468 127.001 389 126.999 262 c 0
 127.005 150.053 188.708 51 267.001 51 c 0
 329.001 51 360 81 383 110 c 9
 431 62 l 1
 405 34 363 -14 267 -15 c 1
 135.673 -13.8964 52.0048 115.936 51.999 262 c 0
 52 412 149 534 270 534 c 0
 348 534 380 511 426.001 466 c 9
EndSplineSet
EndChar
StartChar: d
Encoding: 68 100 24
OldEncoding: 100
Width: 510
Flags: HW
HStem: -14 66<238 256> 467 66<246 256> 690 20G<382 456>
VStem: 63 75<263 291> 382 74<0 710>
Back
372 519 m 21
 446 519 l 5
 446 -191 l 5
 372 -191 l 5
 372 80 l 21
 342 33.0964 306 -14.8904 235 -14 c 5
 112 -14 53 125 53 263 c 4
 53 401 110 533 236 533 c 5
 303 533 345 486 372 437 c 5
 372 519 l 21
128 263 m 4
 128 149 171 52 236 52 c 5
 304 52 374 136 374 262 c 5
 374 404 291 467 236 467 c 4
 172 467 128 380 128 263 c 4
70 720 m 25
 70 -26 l 25
210 716 m 25
 210 -30 l 25
140 -34 m 25
 140 712 l 25
 140 -34 l 25
280 718 m 25
 280 -28 l 25
350 716 m 25
 350 -30 l 25
420 -24 m 25
 420 722 l 25
 420 -24 l 25
EndSplineSet
Fore
382 710 m 21
 456 710 l 5
 456 0 l 5
 382 0 l 5
 382 80 l 21
 352.274 33.5264 316.658 -14.0117 246.941 -14.0117 c 0
 246.298 -14.0117 245.65 -14.0078 245 -14 c 5
 150.706 -14 94.0244 67.6914 72.7041 167.997 c 0
 66.2139 198.533 63 230.794 63 263 c 4
 63 401 120 533 246 533 c 5
 313 533 355.001 486 382.001 437 c 5
 382 710 l 21
138 263 m 4
 138 233.032 140.972 204.238 146.533 178.072 c 0
 162.129 104.704 198.087 52 246 52 c 5
 314 52 383.999 136 383.999 262 c 5
 384 285.752 381.678 307.294 377.553 326.7 c 0
 357.017 423.312 291.8 467 246 467 c 4
 182 467 138 380 138 263 c 4
EndSplineSet
EndChar
StartChar: e
Encoding: 69 101 25
OldEncoding: 101
Width: 515
Flags: HW
HStem: -14 66<258 262> 229 66<130 456> 468 66<258 262>
Back
70 720 m 25
 70 -26 l 25
210 716 m 25
 210 -30 l 25
140 -34 m 25
 140 712 l 25
 140 -34 l 25
280 718 m 25
 280 -28 l 25
350 716 m 25
 350 -30 l 25
420 -24 m 25
 420 722 l 25
 420 -24 l 25
EndSplineSet
Fore
130.656 295 m 1
 385.344 295 l 1
 384.476 308.799 382.591 322.678 379.707 336.246 c 0
 364.826 406.253 323.363 468 258.001 468 c 0
 179.969 468 136.001 378 130.656 295 c 1
130.641 229 m 1
 131.81 214.863 133.851 200.751 136.771 187.013 c 0
 152.234 114.264 192.338 52 258 52 c 0
 304.016 52 356.374 79.3281 377.422 118.484 c 0
 442.344 91.6094 l 0
 408.983 27.0625 333.422 -14 258 -14 c 1
 154.038 -14 85.25 64.0234 61.8652 174.04 c 0
 56.0088 201.594 52.999 231.155 52.999 262 c 0
 53 416 128 534 258 534 c 0
 360.319 534 424.231 460.9 446.809 354.682 c 0
 452.917 325.947 455.999 294.79 455.999 262 c 0
 455.999 251.24 456.47 240.156 456.47 229 c 1
 130.641 229 l 1
EndSplineSet
KernsSLIF: 84 -26 0 0
EndChar
StartChar: f
Encoding: 70 102 26
OldEncoding: 102
Width: 370
Flags: HW
HStem: 0 21G<134 208> 458 66<66 134 208 304> 657 66<271 280>
VStem: 134 74<0 458 524 593>
Back
196 458 m 4
 196 0 l 5
 126 0 l 5
 126 458 l 4
 56 458 l 5
 56 524 l 5
 126 524 l 4
 126 681 l 5
 196 681 l 13
 196 662 l 5
 218 710 230 723 263 723 c 5
 309 723 319 710 348 693 c 13
 301 646 l 21
 284 654 282 657 268 657 c 4
 213 657 196 626 196 557 c 5
 196 524 l 4
 294 524 l 5
 294 458 l 5
 196 458 l 4
70 720 m 25
 70 -26 l 25
210 716 m 25
 210 -30 l 25
140 -34 m 25
 140 712 l 25
 140 -34 l 25
280 718 m 25
 280 -28 l 25
350 716 m 25
 350 -30 l 25
420 -24 m 25
 420 722 l 25
 420 -24 l 25
EndSplineSet
Fore
208 458 m 0
 208 0 l 1
 134 0 l 1
 134 458 l 0
 66 458 l 1
 66 524 l 1
 134 524 l 0
 133.999 578 l 1
 134 674 190.001 723 273.001 723 c 0
 314.001 723 329 710 358 693 c 9
 311 646 l 17
 294 654 291.999 657 277.999 657 c 0
 229.999 657 208 629 207.999 578 c 1
 208 524 l 0
 304 524 l 1
 304 458 l 1
 208 458 l 0
EndSplineSet
KernsSLIF: 65 -39 0 0 78 -33 0 0 89 -20 0 0 84 -34 0 0 85 -40 0 0 79 -20 0 0
EndChar
StartChar: g
Encoding: 71 103 27
OldEncoding: 103
Width: 510
Flags: HW
HStem: -219 66<238 262> -13 66<239 246> 467 67<237 246>
VStem: 53 75<244 294> 372 74<-28 79 244 524>
Back
362 519 m 21
 436 519 l 5
 436 -191 l 5
 362 -191 l 5
 362 80 l 21
 332 33.0967 296 -14.8906 225 -14 c 5
 102 -14 43 125 43 263 c 4
 43 401 100 533 226 533 c 5
 293 533 335 486 362 437 c 5
 362 519 l 21
118 263 m 4
 118 149 161 52 226 52 c 5
 294 52 364 136 364 262 c 5
 364 404 281 467 226 467 c 4
 162 467 118 380 118 263 c 4
490 -24 m 25
 490 722 l 25
 490 -24 l 25
70 720 m 25
 70 -26 l 25
210 716 m 25
 210 -30 l 25
140 -34 m 25
 140 712 l 25
 140 -34 l 25
280 718 m 25
 280 -28 l 25
350 716 m 25
 350 -30 l 25
420 -24 m 25
 420 722 l 25
 420 -24 l 25
EndSplineSet
Fore
128 263 m 0
 128 232.084 130.933 202.843 136.521 176.551 c 0
 152.081 103.345 188.232 53 239.001 53 c 0
 295.001 53 374 124 374 263 c 1
 374 284.997 371.766 305.609 367.722 324.635 c 0
 348.968 412.865 291.292 467 237 467 c 1
 169 467 128 377 128 263 c 0
372 79 m 1
 353.146 51.2139 315.579 -13.0117 240.73 -13.0117 c 0
 240.155 -13.0117 239.579 -13.0078 238.999 -13 c 1
 238.561 -13.0029 238.123 -13.0049 237.687 -13.0049 c 0
 134.312 -13.0049 82.8926 73.9307 63.0723 167.179 c 0
 56.0566 200.187 53 233.986 53 265 c 0
 53 403 112 534 237 534 c 0
 302 534 345.001 486 372.001 437 c 9
 372 524 l 1
 446 524 l 1
 446 -9 l 2
 446 -142 357 -219 258 -219 c 1
 138.114 -219 81.2773 -132.631 67.4229 -67.4512 c 0
 66.3701 -62.4961 65.5654 -57.6631 65 -53 c 0
 65 -53 107.7 -53 134.999 -53 c 17
 135.327 -55.1064 135.71 -57.1904 136.148 -59.2539 c 0
 147.784 -113.995 198.106 -153 254 -153 c 0
 315 -153 372 -110 372 -16 c 0
 372 79 l 1
EndSplineSet
EndChar
StartChar: h
Encoding: 72 104 28
OldEncoding: 104
Width: 520
Flags: HW
HStem: 0 21G<68 142 378 452> 468 67<281 293> 690 20G<68 142>
VStem: 68 74<0 337 0 710> 378 74<0 337>
Back
490 -24 m 25
 490 722 l 25
 490 -24 l 25
70 720 m 25
 70 -26 l 25
210 716 m 25
 210 -30 l 25
140 -34 m 25
 140 712 l 25
 140 -34 l 25
280 718 m 25
 280 -28 l 25
350 716 m 25
 350 -30 l 25
420 -24 m 25
 420 722 l 25
 420 -24 l 25
EndSplineSet
Fore
142 0 m 9
 68 0 l 1
 68 710 l 1
 142 710 l 1
 142 450 l 17
 173 488 210 535 281 535 c 0
 373.736 535 426.894 477.83 444.952 392.868 c 0
 449.677 370.639 451.999 346.508 451.999 321 c 0
 452 0 l 1
 378 0 l 0
 377.999 321 l 0
 378 344.107 376.295 365.742 372.216 384.933 c 0
 361.643 434.675 335.12 468 281.001 468 c 1
 219.001 468 142 406 142 322 c 0
 142 0 l 9
EndSplineSet
EndChar
StartChar: i
Encoding: 73 105 29
OldEncoding: 105
Width: 230
Flags: HW
HStem: 0 21G<78 152> 504 20G<78 152> 605 92<105.596 118>
VStem: 78 74<0 524>
Back
70 720 m 25
 70 -26 l 25
210 716 m 25
 210 -30 l 25
140 -34 m 25
 140 712 l 25
 140 -34 l 25
280 718 m 25
 280 -28 l 25
350 716 m 25
 350 -30 l 25
420 -24 m 25
 420 722 l 25
 420 -24 l 25
EndSplineSet
Fore
69 651 m 0
 69 676 90 697 115 697 c 0
 136.838 697 155.623 680.977 160.026 660.262 c 0
 160.664 657.262 160.999 654.163 161 651 c 0
 161.001 626 140 605 115 605 c 0
 93.1621 605 74.377 621.023 69.9736 641.739 c 0
 69.3359 644.739 69 647.838 69 651 c 0
78 524 m 1
 152 524 l 1
 152 0 l 1
 78 0 l 1
 78 524 l 1
EndSplineSet
EndChar
StartChar: j
Encoding: 74 106 30
OldEncoding: 106
Width: 230
Flags: HW
HStem: -210 66<-13.1645 1> 504 20G<78 152> 605 92<115 117>
VStem: 78 74<0 524>
Back
70 720 m 29
 70 -26 l 29
210 716 m 29
 210 -30 l 29
140 -34 m 29
 140 712 l 29
 140 -34 l 29
280 718 m 29
 280 -28 l 29
350 716 m 29
 350 -30 l 29
420 -24 m 29
 420 722 l 29
 420 -24 l 29
EndSplineSet
Fore
69 651 m 0
 69 676 90 697 115 697 c 0
 136.838 697 155.623 680.977 160.026 660.262 c 0
 160.664 657.262 160.999 654.163 161 651 c 0
 161.001 626 140 605 115 605 c 0
 93.1621 605 74.377 621.023 69.9736 641.739 c 0
 69.3359 644.739 69 647.838 69 651 c 0
-112 -157 m 9
 -59 -112 l 1
 -47 -123 -28 -144 -4 -144 c 1
 60 -144 78 -102 78 0 c 1
 78 524 l 1
 152 524 l 0
 152 0 l 1
 152 -148 96 -210 -4 -210 c 1
 -54 -210 -88 -180 -112 -157 c 9
EndSplineSet
EndChar
StartChar: k
Encoding: 75 107 31
OldEncoding: 107
Width: 481
Flags: HW
HStem: 0 21G<68 142 379 464> 504 20G<338 423> 690 20G<68 142>
VStem: 68 74<0 218 0 710>
DStem: 164 244 214 292 379 0 464 0 338 524 423 524 142 311 214 292
Back
70 720 m 29
 70 -26 l 29
210 716 m 29
 210 -30 l 29
140 -34 m 29
 140 712 l 29
 140 -34 l 29
280 718 m 29
 280 -28 l 29
350 716 m 29
 350 -30 l 29
420 -24 m 29
 420 722 l 29
 420 -24 l 29
EndSplineSet
Fore
213.999 292 m 1
 464 0 l 1
 379 0 l 1
 164 244 l 1
 142 218 l 1
 142 0 l 1
 68 0 l 1
 68 710 l 1
 142 710 l 1
 142 311 l 17
 338 524 l 1
 423 524 l 1
 213.999 292 l 1
EndSplineSet
EndChar
StartChar: l
Encoding: 76 108 32
OldEncoding: 108
Width: 230
Flags: HW
HStem: 690 20G<78 152>
VStem: 78 74<97 710>
Back
70 720 m 29
 70 -26 l 29
210 716 m 29
 210 -30 l 29
140 -34 m 29
 140 712 l 29
 140 -34 l 29
280 718 m 29
 280 -28 l 29
350 716 m 29
 350 -30 l 29
420 -24 m 29
 420 722 l 29
 420 -24 l 29
EndSplineSet
Fore
152 101 m 1
 152 95.7598 152.481 90.9805 153.405 86.6367 c 0
 159 60.3154 180.816 50 210 50 c 1
 210 -14 l 1
 141.219 -14 94.6133 4.48047 81.623 65.5908 c 0
 79.5049 75.5586 78.2803 86.6602 78 99 c 1
 78 710 l 1
 152 710 l 1
 152 101 l 1
EndSplineSet
EndChar
StartChar: m
Encoding: 77 109 33
OldEncoding: 109
Width: 769
Flags: HW
HStem: 0 21G<68 142 348 422 628 702> 468 67<270 277 536.105 553>
VStem: 68 74<0 337 0 524> 348 74<0 337> 628 74<0 337>
CounterMasks: 1 00
Back
70 720 m 29
 70 -26 l 29
210 716 m 29
 210 -30 l 29
140 -34 m 29
 140 712 l 29
 140 -34 l 29
280 718 m 29
 280 -28 l 29
350 716 m 29
 350 -30 l 29
420 -24 m 29
 420 722 l 29
 420 -24 l 29
EndSplineSet
Fore
422 0 m 1
 348 0 l 0
 347.999 321 l 0
 348 345.476 345.962 368.169 341.738 388.04 c 0
 331.467 436.365 308.266 468 270.001 468 c 1
 208.001 468 142 406 142 322 c 0
 142 0 l 9
 68 0 l 1
 68 524 l 1
 142 524 l 1
 142 450 l 17
 165 485 199 535 270 535 c 0
 343.672 535 385.607 490.526 405.162 434.777 c 1
 434 480 475.179 535 550 535 c 0
 639.18 535 678.478 485.628 693.678 414.119 c 0
 699.782 385.396 702 353.101 702.001 319 c 0
 702 0 l 1
 628 0 l 0
 628.001 319 l 0
 628 343.702 625.925 366.76 621.621 387.006 c 0
 611.291 435.608 588.12 468 550.001 468 c 1
 488.001 468 422 406 422 322 c 0
 422 0 l 1
EndSplineSet
EndChar
StartChar: n
Encoding: 78 110 34
OldEncoding: 110
Width: 520
Flags: HW
HStem: 0 21G<68 142 378 452> 468 67<285 293>
VStem: 68 74<0 337 0 524> 378 74<0 337>
Back
490 -24 m 29
 490 722 l 29
 490 -24 l 29
70 720 m 25
 70 -26 l 25
210 716 m 25
 210 -30 l 25
140 -34 m 25
 140 712 l 25
 140 -34 l 25
280 718 m 25
 280 -28 l 25
350 716 m 25
 350 -30 l 25
420 -24 m 25
 420 722 l 25
 420 -24 l 25
EndSplineSet
Fore
142 0 m 9
 68 0 l 1
 68 524 l 1
 142 524 l 1
 142 445 l 17
 170.001 486 214 535 285 535 c 0
 377.521 535 427.621 473.524 444.944 392.025 c 0
 449.715 369.58 452 345.616 451.999 321 c 0
 452 0 l 1
 378 0 l 0
 377.999 321 l 0
 378 342.572 376.104 362.248 372.395 379.697 c 0
 360.629 435.05 330.618 468 285.001 468 c 1
 223.001 468 142 406 142 322 c 0
 142 0 l 9
EndSplineSet
EndChar
StartChar: o
Encoding: 79 111 35
OldEncoding: 111
Width: 515
Flags: HW
HStem: -14 66<258 264> 468 66<258 264>
VStem: 55 75<262 275> 386 75<262 275>
Back
490 -24 m 29
 490 722 l 29
 490 -24 l 29
70 720 m 25
 70 -26 l 25
210 716 m 25
 210 -30 l 25
140 -34 m 25
 140 712 l 25
 140 -34 l 25
280 718 m 25
 280 -28 l 25
350 716 m 25
 350 -30 l 25
420 -24 m 25
 420 722 l 25
 420 -24 l 25
EndSplineSet
Fore
54.999 262 m 0
 55 416 128 534 258 534 c 0
 361.666 534 429.086 458.964 452.146 350.474 c 0
 458.005 322.914 460.999 293.196 460.999 262 c 0
 461 108 388 -14 258 -14 c 1
 154.556 -14 87.2021 63.248 64.002 172.399 c 0
 58.0459 200.419 55 230.542 54.999 262 c 0
129.999 262 m 0
 130 237.931 132.514 212.731 137.668 188.48 c 0
 153.074 116.003 192.063 52 258 52 c 0
 352 52 386 166 385.999 262 c 0
 386 285.733 383.556 310.321 378.545 333.892 c 0
 363.289 405.665 324.245 468 258.001 468 c 0
 170.001 468 130.001 358 129.999 262 c 0
EndSplineSet
KernsSLIF: 88 -26 0 0
EndChar
StartChar: p
Encoding: 80 112 36
OldEncoding: 112
Width: 510
Flags: HW
HStem: -14 66<264.947 281> 467 66<278 282>
VStem: 68 74<-209 524> 386 75<263 288>
Back
70 720 m 25
 70 -26 l 25
210 716 m 25
 210 -30 l 25
140 -34 m 25
 140 712 l 25
 140 -34 l 25
280 718 m 25
 280 -28 l 25
350 716 m 25
 350 -30 l 25
420 -24 m 25
 420 722 l 25
 420 -24 l 25
EndSplineSet
Fore
142 524 m 17
 68 524 l 1
 68 -209 l 1
 142 -209 l 1
 142 80 l 17
 171.726 33.5264 207.342 -14.0117 277.06 -14.0117 c 0
 277.703 -14.0117 278.351 -14.0078 279 -14 c 1
 402 -14 460.999 125 461 263 c 0
 461 295.227 457.891 327.127 451.521 357.095 c 0
 430.614 455.453 374.575 533 278 533 c 1
 211 533 169.001 486 142.001 437 c 1
 142 524 l 17
386 263 m 0
 386 149 343 52 278 52 c 1
 222.447 52 165.56 108.062 146.595 197.286 c 0
 142.345 217.278 140 238.936 139.999 262 c 1
 140 404 223 467 278 467 c 0
 325.714 467 362.312 418.644 377.848 345.551 c 0
 383.15 320.603 386 292.773 386 263 c 0
EndSplineSet
EndChar
StartChar: q
Encoding: 81 113 37
OldEncoding: 113
Width: 512
Flags: HW
HStem: -219 66<487.142 503.906> -14 66<228 246> 467 66<228 246>
VStem: 53 75<244 278> 372 74<-108 80 244 524>
Back
362 710 m 17
 436 710 l 1
 436 0 l 1
 362 0 l 1
 362 80 l 17
 332 33.0967 296 -14.8906 225 -14 c 1
 102 -14 43 125 43 263 c 0
 43 401 100 533 226 533 c 1
 293 533 335 486 362 437 c 1
 362 710 l 17
118 263 m 0
 118 149 161 52 226 52 c 1
 294 52 364 136 364 262 c 1
 364 404 281 467 226 467 c 0
 162 467 118 380 118 263 c 0
70 720 m 25
 70 -26 l 25
210 716 m 25
 210 -30 l 25
140 -34 m 25
 140 712 l 25
 140 -34 l 25
280 718 m 25
 280 -28 l 25
350 716 m 25
 350 -30 l 25
420 -24 m 25
 420 722 l 25
 420 -24 l 25
EndSplineSet
Fore
127.999 262 m 0
 128 231.051 130.981 202.792 136.309 177.73 c 0
 153.013 99.1406 192.782 52 236 52 c 0
 292 52 374.001 121 373.999 262 c 1
 374 285.243 371.698 306.727 367.529 326.339 c 0
 348.382 416.421 289.842 467 234 467 c 1
 172 467 128.001 378 127.999 262 c 0
446 -97 m 2
 446 -104.999 446.589 -112.073 447.905 -118.264 c 0
 453.005 -142.258 469.024 -153 504 -153 c 1
 504 -219 l 1
 433.908 -219 388.063 -195.466 375.499 -136.354 c 0
 373.185 -125.468 372 -113.375 372 -100 c 0
 372 80 l 1
 352 47 311 -14 237 -14 c 1
 139.674 -14 83.9736 67.5195 62.8682 166.816 c 0
 56.2158 198.11 53 231.17 53 264 c 0
 52.999 402 111 533 233 533 c 0
 304 533 342.001 486 372 439 c 9
 372 524 l 1
 446 524 l 1
 446 -97 l 2
EndSplineSet
EndChar
StartChar: r
Encoding: 82 114 38
OldEncoding: 114
Width: 375
Flags: HW
HStem: 0 21G<68 142> 470 67<246.497 262>
VStem: 68 74<0 321 0 524>
Back
70 720 m 29
 70 -26 l 29
210 716 m 29
 210 -30 l 29
140 -34 m 29
 140 712 l 29
 140 -34 l 29
280 718 m 29
 280 -28 l 29
350 716 m 29
 350 -30 l 29
420 -24 m 29
 420 722 l 29
 420 -24 l 29
EndSplineSet
Fore
327 450 m 1
 316.001 457 285.999 470 258.999 470 c 1
 201.999 470 141.999 411 142 314 c 0
 142 314 141.999 122.46 142 0 c 17
 68 0 l 1
 68 524 l 1
 142 524 l 1
 142 450 l 17
 160.001 486 208 537 259 537 c 0
 293 537 335 525 359 510 c 1
 327 450 l 1
EndSplineSet
KernsSLIF: 69 -20 0 0
EndChar
StartChar: s
Encoding: 83 115 39
OldEncoding: 115
Width: 470
Flags: HW
HStem: -14 66<211.662 245> 470 66<227 245>
VStem: 64 75<385 403> 340 75<132.786 148>
Back
53 394 m 4
 53 472.384 129.608 536 224 536 c 4
 318.392 536 395 472.384 395 394 c 4
 395 315.616 318.392 252 224 252 c 4
 129.608 252 53 315.616 53 394 c 4
129 392 m 0
 129 435.056 172.456 470 226 470 c 0
 279.544 470 323 435.056 323 392 c 0
 323 348.944 279.544 314 226 314 c 0
 172.456 314 129 348.944 129 392 c 0
51 145 m 0
 51 232.216 130.296 303 228 303 c 0
 325.704 303 405 232.216 405 145 c 0
 405 57.784 325.704 -13 228 -13 c 0
 130.296 -13 51 57.784 51 145 c 0
125 147 m 0
 125 199.44 170.696 242 227 242 c 0
 283.304 242 329 199.44 329 147 c 0
 329 94.56 283.304 52 227 52 c 0
 170.696 52 125 94.56 125 147 c 0
70 720 m 25
 70 -26 l 25
210 716 m 25
 210 -30 l 25
140 -34 m 25
 140 712 l 25
 140 -34 l 25
280 718 m 25
 280 -28 l 25
350 716 m 25
 350 -30 l 25
420 -24 m 25
 420 722 l 25
 420 -24 l 25
EndSplineSet
Fore
234 240 m 0
 163.964 262.897 81.8096 293.361 66.5166 365.308 c 0
 64.8721 373.045 64 381.261 64 390 c 0
 64 480 143 535 234.001 536 c 0
 234.954 536.01 235.904 536.016 236.852 536.016 c 0
 336.831 536.016 395.771 477.831 406.908 425.441 c 0
 407 425 l 1
 337.999 411 l 0
 327 445 295.999 470 234.999 470 c 0
 186.999 470 139 438 139 393 c 0
 139.001 388.209 139.479 383.722 140.373 379.514 c 0
 149.747 335.41 204.875 321.955 235 311 c 0
 301.786 286.715 395.283 251.447 412.291 171.43 c 0
 414.059 163.116 415 154.318 414.999 145 c 0
 415.001 54 332 -14 236 -14 c 0
 132 -14 72 34 52 106 c 1
 121 119 l 1
 132 76 170 52 234 52 c 0
 300 52 340 101 339.999 145 c 0
 340 149.914 339.499 154.604 338.547 159.085 c 0
 329.613 201.11 280.99 224.638 234 240 c 0
EndSplineSet
EndChar
StartChar: t
Encoding: 84 116 40
OldEncoding: 116
Width: 360
Flags: HW
HStem: -14 62<255 289> 458 66<55 124 198 294>
VStem: 124 74<97 458 524 646>
Back
70 720 m 29
 70 -26 l 29
210 716 m 29
 210 -30 l 29
140 -34 m 29
 140 712 l 29
 140 -34 l 29
280 718 m 29
 280 -28 l 29
350 716 m 29
 350 -30 l 29
420 -24 m 29
 420 722 l 29
 420 -24 l 29
EndSplineSet
Fore
124 458 m 4
 55 458 l 5
 55 524 l 5
 124 524 l 4
 124 646 l 5
 198 646 l 4
 198 524 l 4
 294 524 l 5
 294 458 l 5
 198 458 l 4
 198 105 l 4
 198 98.2295 198.617 92.2529 199.738 86.9775 c 0
 207.064 52.5127 235.921 48 255 48 c 5
 289 48 l 5
 289 -14 l 5
 255 -14 l 5
 174.375 -14 138.604 10.7012 127.769 61.6768 c 0
 125.164 73.9268 124 87.6934 124.001 103 c 5
 124 458 l 4
EndSplineSet
EndChar
StartChar: u
Encoding: 85 117 41
OldEncoding: 117
Width: 520
Flags: HW
HStem: -11 67<238 256> 504 20G<63 137 373 447>
VStem: 63 74<180 524> 373 74<0 524>
Back
70 720 m 29
 70 -26 l 29
210 716 m 29
 210 -30 l 29
140 -34 m 29
 140 712 l 29
 140 -34 l 29
280 718 m 29
 280 -28 l 29
350 716 m 29
 350 -30 l 29
420 -24 m 29
 420 722 l 29
 420 -24 l 29
EndSplineSet
Fore
373 524 m 13
 447 524 l 5
 447 0 l 5
 373 0 l 5
 373 68 l 21
 355 38 307 -11 250 -11 c 4
 164.301 -11 88.1494 58.7705 68.1221 152.996 c 0
 64.7793 168.72 63 185.125 63.001 202 c 4
 63 524 l 5
 137 524 l 4
 137 201 l 4
 137 185.294 138.525 170.846 141.327 157.665 c 0
 155.65 90.2783 203.326 56 251 56 c 5
 309 56 373 108 373.001 202 c 4
 373 524 l 13
EndSplineSet
EndChar
StartChar: v
Encoding: 86 118 42
OldEncoding: 118
Width: 520
Flags: HW
HStem: 0 21G<223 297> 504 20G<45 123 400 477>
DStem: 45 524 123 524 223 0 260 95 400 524 477 524 260 95 297 0
Back
70 720 m 29
 70 -26 l 29
210 716 m 29
 210 -30 l 29
140 -34 m 29
 140 712 l 29
 140 -34 l 29
280 718 m 29
 280 -28 l 29
350 716 m 29
 350 -30 l 29
420 -24 m 29
 420 722 l 29
 420 -24 l 29
EndSplineSet
Fore
223 0 m 1
 45 524 l 1
 123 524 l 1
 260 95 l 1
 400 524 l 1
 477 524 l 1
 297 0 l 1
 223 0 l 1
EndSplineSet
EndChar
StartChar: w
Encoding: 87 119 43
OldEncoding: 119
Width: 691
Flags: HW
HStem: 0 21G<178 235 454 514> 504 20G<38 113 579 654>
DStem: 309 520 346 421 207 122 235 0 346 421 383 520 454 0 485 122
Back
70 720 m 29
 70 -26 l 29
210 716 m 29
 210 -30 l 29
140 -34 m 29
 140 712 l 29
 140 -34 l 29
280 718 m 29
 280 -28 l 29
350 716 m 29
 350 -30 l 29
420 -24 m 29
 420 722 l 29
 420 -24 l 29
EndSplineSet
Fore
346 421 m 1
 235 0 l 1
 178 0 l 1
 38 524 l 1
 113 524 l 1
 207 122 l 1
 309 520 l 0
 309 520 354.141 520 383 520 c 17
 485 122 l 1
 579 524 l 17
 654 524 l 1
 514 0 l 1
 454 0 l 1
 346 421 l 1
EndSplineSet
EndChar
StartChar: x
Encoding: 88 120 44
OldEncoding: 120
Width: 460
Flags: HW
HStem: 0 21G<31 117 347 430> 504 20G<32 115 343 426>
DStem: 32 524 115 524 184 263 229 312
Back
70 720 m 29
 70 -26 l 29
210 716 m 29
 210 -30 l 29
140 -34 m 29
 140 712 l 29
 140 -34 l 29
280 718 m 29
 280 -28 l 29
350 716 m 29
 350 -30 l 29
420 -24 m 29
 420 722 l 29
 420 -24 l 29
EndSplineSet
Fore
430 0 m 1
 347 0 l 9
 228.999 215 l 1
 117 0 l 1
 31 0 l 9
 184 263 l 1
 32 524 l 9
 64.3701 524 115 524 115 524 c 0
 228.999 312 l 0
 343 524 l 1
 426 524 l 1
 273.999 265 l 0
 430 0 l 1
EndSplineSet
EndChar
StartChar: y
Encoding: 89 121 45
OldEncoding: 121
Width: 500
Flags: HW
HStem: -219 66<249 255> -11 67<238 256> 504 20G<63 137 373 447>
VStem: 63 74<209 524> 373 74<-28 70 196 524>
Back
363 524 m 13
 437 524 l 5
 437 0 l 5
 363 0 l 5
 363 68 l 21
 345 38 297 -11 240 -11 c 4
 140 -11 53 84 53 202 c 4
 53 524 l 5
 127 524 l 4
 127 201 l 4
 127 105 184 56 241 56 c 5
 299 56 363 108 363 202 c 4
 363 524 l 13
70 720 m 25
 70 -26 l 25
210 716 m 25
 210 -30 l 25
140 -34 m 25
 140 712 l 25
 140 -34 l 25
280 718 m 25
 280 -28 l 25
350 716 m 25
 350 -30 l 25
420 -24 m 25
 420 722 l 25
 420 -24 l 25
EndSplineSet
Fore
81.5166 -134.483 m 0
 133.414 -92.5859 l 0
 158.999 -123 187 -153 249 -153 c 0
 310 -153 373 -110 373 -16 c 0
 373 -16 373 37.0703 373.001 71 c 17
 354.999 37 310 -11 250 -11 c 0
 169.795 -11 90.3164 51.6104 68.7178 153.227 c 0
 65.0029 170.704 63.001 189.335 63.001 209 c 0
 63 524 l 1
 137 524 l 0
 137.001 209 l 0
 137 190.284 138.751 173.284 142 158.002 c 0
 156.454 90.001 200.56 56 252 56 c 1
 311 56 373 110 373 205 c 0
 373 524 l 9
 447 524 l 1
 447 -9 l 2
 447 -142 348 -219 249 -219 c 1
 161 -219 116 -174 81.5166 -134.483 c 0
EndSplineSet
EndChar
StartChar: z
Encoding: 90 122 46
OldEncoding: 122
Width: 490
Flags: HW
HStem: 0 69<172 433> 455 69<69 325>
DStem: 325 455 448 524 49 0 172 69
Back
70 720 m 29
 70 -26 l 29
210 716 m 29
 210 -30 l 29
140 -34 m 29
 140 712 l 29
 140 -34 l 29
280 718 m 29
 280 -28 l 29
350 716 m 29
 350 -30 l 29
420 -24 m 29
 420 722 l 29
 420 -24 l 29
EndSplineSet
Fore
172 69 m 1
 433 69 l 1
 433 0 l 1
 49 0 l 1
 325 455 l 2
 69 455 l 1
 69 524 l 1
 448 524 l 1
 172 69 l 1
EndSplineSet
EndChar
StartChar: braceleft
Encoding: 91 123 21
OldEncoding: 123
Width: 385
Flags: HW
Fore
49 356 m 1
 181 398 128 623 154 684 c 1
 183.999 745 247.999 745 314.999 747 c 1
 315 681 l 1
 308 682 301 683 294 683 c 0
 268 683 233 673 220 654 c 1
 215 645 214.001 626 214 604 c 0
 214 597 214 590 214 582 c 0
 214 523 202 376 153 356 c 1
 175.126 347.872 189.707 310.791 199.047 266.853 c 0
 210.391 213.486 214 150.004 213.999 116 c 0
 214 95 l 0
 214 77.6602 214.521 62.9297 216.697 52.6953 c 0
 217.532 48.7646 218.612 45.4971 220 43 c 1
 233.001 24 268 14 294 14 c 0
 301 14 308 15 315 16 c 1
 315 -50 l 1
 248 -48 184 -48 154.001 13 c 1
 152.416 16.7168 151.125 21.1064 150.067 26.0811 c 0
 140.379 71.6602 150.303 166.387 133.89 243.602 c 0
 122.697 296.258 99.2578 340.77 49 356 c 1
EndSplineSet
EndChar
StartChar: bar
Encoding: 92 124 22
OldEncoding: 124
Width: 200
Flags: HW
HStem: 0 21G<66 136> 690 20G<66 136>
VStem: 66 70<0 710>
Fore
66 0 m 17
 66 710 l 1
 136 710 l 1
 136 0 l 9
 66 0 l 17
EndSplineSet
EndChar
StartChar: braceright
Encoding: 93 125 22
OldEncoding: 125
Width: 385
Flags: HW
Fore
336 356 m 1
 204 316 257 77 231 16 c 1
 201 -45 137 -45 70 -47 c 1
 70.001 19 l 1
 77 18 84 17 91 17 c 0
 117 17 152 27 164.999 46 c 1
 169.999 55 171 74 170.999 98 c 0
 171 119 l 0
 171 181 183 338 232 356 c 1
 208.801 365.469 193.896 403.405 184.631 446.992 c 0
 174.327 495.468 171 550.933 171 582 c 0
 171 590 171 597 171 604 c 0
 171 619.82 170.483 634.09 168.333 644.204 c 0
 167.493 648.155 166.404 651.472 165 654 c 1
 152 673 117 683 91 683 c 0
 84 683 77 682 70 681 c 1
 69.999 747 l 1
 136.999 745 200.999 745 231 684 c 1
 232.642 680.148 233.969 675.641 235.048 670.568 c 0
 244.402 626.555 235.047 539.888 250.403 467.642 c 0
 261.305 416.355 284.659 372.336 336 356 c 1
EndSplineSet
EndChar
StartChar: asciitilde
Encoding: 94 126 23
OldEncoding: 126
Width: 379
Flags: HW
Fore
35.999 373 m 17
 57.999 391 86.999 420 124.999 420 c 0
 172.999 420 204 346 255 346 c 1
 289 346 317 372 347 394 c 9
 347 323 l 17
 317 300 291 275 255 275 c 0
 199 275 164.001 349 124.001 349 c 0
 86.001 349 63 324 36 302 c 9
 35.999 373 l 17
EndSplineSet
EndChar
StartChar: cent
Encoding: 97 162 26
OldEncoding: 162
Width: 415
Flags: HW
HStem: 38 160<215 257> 423 167<189 223>
VStem: 44 70<309 327> 191 66<38 134 484 590>
Fore
190.999 136 m 1
 123.176 144.373 65.8682 192.01 49.0195 271.278 c 0
 45.7461 286.677 44 303.27 43.999 321 c 0
 44 426 127.999 470 189 485 c 1
 189 590 l 1
 255 590 l 1
 255 485 l 1
 294.001 475 326 453 352 430 c 9
 334.84 412.06 308 384 308 384 c 0
 294 398 268 423 217 423 c 1
 163 423 113.999 380 114 319 c 0
 114 306.627 115.197 295.044 117.476 284.326 c 0
 129.007 230.075 168.228 198 220 198 c 0
 260 198 294 214 322 250 c 9
 366 206 l 1
 345.999 174 305 149 256.999 134 c 1
 257 38 l 1
 191 38 l 1
 190.999 136 l 1
EndSplineSet
EndChar
StartChar: sterling
Encoding: 98 163 27
OldEncoding: 163
Width: 567
Flags: HW
HStem: 0 66<182 422> 291 66<46 157 237 412> 651 65<296 303>
VStem: 162 75<357 417>
Fore
157 291 m 1
 46 291 l 1
 46 357 l 1
 162 357 l 1
 162.001 586 200 716 295.999 716 c 0
 365.999 716 420 672 456 571 c 1
 386 568 l 1
 376 608 348 651 296 651 c 0
 264 651 237 534 237 456 c 0
 237 441 236.999 411 237 395 c 0
 236.999 382 237 370 237 357 c 1
 412 357 l 1
 412 291 l 1
 234 291 l 1
 228.707 216.919 201.104 123.312 181.999 66 c 1
 427.999 66 l 1
 444 67 461 68 485 101 c 1
 524 45 l 1
 501 10 461 6 422 0 c 1
 76 0 l 1
 92.0322 64.127 150.42 185.721 157 291 c 1
EndSplineSet
EndChar
StartChar: currency
Encoding: 99 164 28
OldEncoding: 164
Width: 438
Flags: HW
HStem: 183 96<36 132 340 402> 462 96<36 95 306 402>
VStem: 36 96<183 246 462 558> 66 66<359.456 375> 306 96<183 279 498 558>
Fore
131.999 373 m 0xd8
 131.999 366.583 132.672 360.335 133.95 354.321 c 0
 142.434 314.406 177.617 284.8 220.2 284.8 c 0
 269.2 284.8 308.4 324 308.4 373 c 0
 308.399 379.417 307.728 385.665 306.449 391.68 c 0
 297.965 431.595 262.784 461.2 220.2 461.2 c 0
 171.2 461.2 132 422 131.999 373 c 0xd8
306 246 m 1
 281.001 229 251 219 219 219 c 0
 187 219 157.001 229 132 246 c 1
 131.999 183 l 1
 36 183 l 1
 36 279 l 1xe8
 98.001 279 l 1
 84.1367 297.022 74.1191 317.926 69.2754 340.714 c 0
 67.1309 350.802 66 361.26 66 372 c 0xd8
 66 406 77.001 437 95 462 c 1
 36 462 l 1
 35.999 558 l 1
 131.999 558 l 1
 132.001 498 l 1xe8
 157 515 187 525 219 525 c 0
 251 525 281 515 306.001 498 c 1
 305.999 558 l 1
 401.999 558 l 1
 402 462 l 1
 343 462 l 1
 355.136 445.146 364.088 425.565 368.635 404.176 c 0
 370.832 393.838 372 383.078 372 372 c 0
 372 337 360 305 340.001 279 c 1
 402.001 279 l 1
 401.999 183 l 1
 305.999 183 l 1
 306 246 l 1
EndSplineSet
EndChar
StartChar: yen
Encoding: 100 165 29
OldEncoding: 165
Width: 562
Flags: HW
HStem: 0 21G<235 309> 162 66<83 235 309 458> 333 66<83 235 337 458>
VStem: 235 74<0 162 228 333>
DStem: 41 682 117 682 209 399 275 406 443 682 519 682 275 406 337 399
Fore
235 333 m 1
 83 333 l 1
 83.001 399 l 1
 209.001 399 l 1
 41 682 l 1
 117 682 l 1
 275 406 l 1
 443 682 l 1
 519 682 l 1
 337.001 399 l 1
 458.001 399 l 1
 458 333 l 1
 309 333 l 1
 309 228 l 1
 458 228 l 1
 458.001 162 l 1
 309.001 162 l 1
 309 0 l 1
 235 0 l 1
 235.001 162 l 1
 83.001 162 l 1
 83 228 l 1
 235 228 l 1
 235 333 l 1
EndSplineSet
EndChar
StartChar: brokenbar
Encoding: 101 166 26
OldEncoding: 166
Width: 169
Flags: HW
HStem: 0 21G<49 119>
VStem: 49 70<0 315 385 700>
Fore
119 315 m 21
 119 0 l 1
 49 0 l 1
 49 315 l 13
 119 315 l 21
49 385 m 17
 49 700 l 1
 119 700 l 1
 119 385 l 9
 49 385 l 17
EndSplineSet
EndChar
StartChar: section
Encoding: 102 167 27
OldEncoding: 167
Width: 355
Flags: HW
HStem: 51 66<166 182> 211 66<217 228> 406 66<121 139> 566 66<174 190>
VStem: 26 74<399 426> 252 79<259 284>
Fore
96.001 468 m 1
 105.121 470.606 115.655 471.999 128 472 c 0
 215.982 472 305.189 403.295 326.315 303.903 c 0
 329.369 289.538 330.999 274.532 331 259 c 0
 331.001 150 262.001 51 176.001 51 c 0
 118.001 51 69.7627 74.9004 30 142 c 9
 103 147 l 17
 116 129 149 117 168 117 c 2
 170 117 l 2
 218 117 250 160 259.999 215 c 0
 260.073 215.404 260.075 215.752 260.013 216.046 c 0
 259.801 217.045 258.84 217.444 257.351 217.444 c 0
 251.369 217.444 236.856 211.002 228.001 211 c 0
 142.542 211 54.293 263.774 31.5859 370.604 c 0
 27.9551 387.685 25.999 406.149 26 426 c 0
 26 532 88 632 180 632 c 0
 246 632 276 608 319 552 c 1
 244 544 l 0
 232 557 204 566 188 566 c 2
 186 566 l 2
 134 566 107.999 522 96.001 468 c 1
252 284 m 0
 252 290.997 251.217 298.114 249.707 305.217 c 0
 238.918 355.978 191.039 406 127 406 c 0
 115.675 406 108.242 403.71 100.001 399 c 1
 100 393.217 100.656 387.375 101.896 381.542 c 0
 113.091 328.874 171.883 277 225 277 c 0
 227.74 277 230.808 276.911 233.865 276.911 c 0
 242.978 276.911 252 277.702 252 284 c 0
EndSplineSet
EndChar
StartChar: dieresis
Encoding: 103 168 27
OldEncoding: 168
Width: 408
Flags: HW
VStem: 42 92<398.596 411> 272 92<409 411>
Fore
272 409 m 0
 272 434 293 455 318 455 c 0
 339.837 455 358.623 438.977 363.025 418.262 c 0
 363.663 415.261 364 412.163 364 409 c 0
 364 384 343 363 318 363 c 0
 296.163 363 277.377 379.023 272.974 399.739 c 0
 272.336 402.739 271.999 405.838 272 409 c 0
42 408 m 0
 42 433 63 454 88 454 c 0
 109.837 454 128.623 437.977 133.026 417.262 c 0
 133.664 414.262 134 411.163 134 408 c 0
 134 383 113 362 88 362 c 0
 66.1621 362 47.377 378.023 42.9736 398.739 c 0
 42.3359 401.739 42 404.838 42 408 c 0
EndSplineSet
EndChar
StartChar: copyright
Encoding: 104 169 28
OldEncoding: 169
Width: 480
Flags: HW
HStem: 152 56<239 250> 265 55<239 250> 412 55<239 241> 524 56<239 250>
VStem: 25 57<366 377> 138 55<366 368> 396 57<366 377>
Fore
312 298 m 17
 294 280 267 265 238.999 265 c 0
 190.311 265 149.937 299.018 140.226 344.706 c 0
 138.768 351.566 138 358.689 138 366 c 0
 138 422 183 467 239 467 c 0
 267 467 294 456 312 438 c 9
 274 398 l 17
 265 406 252 412 239 412 c 0
 214 412 192.999 391 193 366 c 0
 193.001 362.837 193.336 359.739 193.974 356.738 c 0
 198.377 336.023 217.163 320 239.001 320 c 0
 252.001 320 267 325 276 333 c 9
 312 298 l 17
82 366 m 0
 82 354.622 83.1973 343.518 85.4727 332.81 c 0
 100.6 261.643 163.378 208 239 208 c 0
 326 208 396.001 279 396 366 c 0
 396 377.378 394.803 388.482 392.526 399.19 c 0
 377.399 470.357 314.622 524 239 524 c 0
 152 524 82 453 82 366 c 0
25 366 m 0
 25 484 121 580 239 580 c 0
 341.73 580 427.784 507.239 448.337 410.546 c 0
 451.392 396.173 453 381.271 453 366 c 0
 453 248 357 152 239 152 c 0
 136.271 152 50.2158 224.76 29.6631 321.453 c 0
 26.6074 335.827 25 350.729 25 366 c 0
EndSplineSet
EndChar
StartChar: ordfeminine
Encoding: 105 170 29
OldEncoding: 170
Width: 263
Flags: HW
HStem: 378 36<24 236> 434 36.1603<111.226 121.271> 602.748 36.1603<111.226 121.271> 696.984 36.1603<113.341 121.271>
VStem: 10.7721 39.6528<536.454 539.741>
Fore
24 414 m 1
 236 414 l 1
 236.001 378 l 1
 24.001 378 l 1
 24 414 l 1
EndSplineSet
Ref: 65 97 N 0.528704 0 0 0.547884 -13.5483 441.67
EndChar
StartChar: guillemotleft
Encoding: 106 171 30
OldEncoding: 171
Width: 446
Flags: HW
DStem: 34 404 100 404 128 262 194 262 128 546 194 546 34 404 100 404 230 404 296 404 324 262 390 262 324 546 390 546 230 404 296 404
Fore
324 546 m 1
 390 546 l 1
 296 404 l 1
 389.999 262 l 1
 323.999 262 l 1
 230 404 l 1
 324 546 l 1
128 546 m 1
 194 546 l 1
 100 404 l 1
 193.999 262 l 1
 127.999 262 l 1
 34 404 l 1
 128 546 l 1
EndSplineSet
EndChar
StartChar: logicalnot
Encoding: 107 172 31
OldEncoding: 172
Width: 521
Flags: HW
HStem: 366 70<80 388>
VStem: 388 66<266 436>
Fore
454 266 m 1
 388 266 l 1
 388 366 l 0
 80 366 l 1
 80 436 l 1
 454 436 l 1
 454 266 l 1
EndSplineSet
EndChar
StartChar: registered
Encoding: 109 174 33
OldEncoding: 174
Width: 601
Flags: HW
HStem: 118 57<299 308> 455 38<253 280> 558 57<299 308>
VStem: 51 57<366 375> 213 40<242 352 242 455> 353 39<423 425> 491 57<366 375>
DStem: 285 353 324 359 354 242 403 242
Fore
108 366 m 0
 108 349.682 109.62 334.48 112.62 320.367 c 0
 133.887 220.314 224.508 175 299 175 c 0
 386 175 490.999 244 491 366 c 0
 491 381.043 489.481 395.151 486.678 408.342 c 0
 464.879 510.896 365.452 558 298.999 558 c 0
 211.999 558 108 496 108 366 c 0
51 366 m 0
 51 538 190.001 615 299.001 615 c 0
 416.361 615 517.852 535.646 542.369 420.3 c 0
 546.055 402.964 548 384.815 548 366 c 0
 548 218 424 118 299 118 c 0
 198.246 118 83.6738 182.478 56.835 308.744 c 0
 53.041 326.597 51 345.685 51 366 c 0
252.999 391 m 1
 260.999 391 268.999 391 277.999 391 c 0
 315.999 391 353 394 353 423 c 1
 353 424.908 352.813 426.704 352.454 428.392 c 0
 347.172 453.246 304.455 455 267 455 c 0
 262 455 257 455 253 455 c 1
 252.999 391 l 1
213 493 m 0
 253 493 l 1
 320.301 493 381.652 477.701 390.821 434.565 c 0
 391.598 430.912 392 427.06 392 423 c 0
 392 374 356 366 324 359 c 1
 402.999 242 l 1
 353.999 242 l 1
 285 353 l 1
 253 352 l 1
 252.999 242 l 1
 212.999 242 l 1
 213 493 l 0
EndSplineSet
EndChar
StartChar: macron
Encoding: 110 175 34
OldEncoding: 175
Width: 365
Flags: HW
HStem: 486 66<36 331>
Fore
36 552 m 1
 331 552 l 1
 331.001 486 l 1
 36.001 486 l 1
 36 552 l 1
EndSplineSet
EndChar
StartChar: degree
Encoding: 111 176 28
OldEncoding: 176
Width: 312
Flags: HW
Fore
86.3203 575.05 m 0
 86.3203 569.43 86.9062 563.97 88.0205 558.731 c 0
 95.0078 525.858 122.767 501.73 156.82 501.73 c 0
 196.3 501.73 227.319 534.16 227.32 575.05 c 0
 227.319 580.67 226.734 586.13 225.621 591.369 c 0
 218.633 624.242 190.874 648.37 156.82 648.37 c 0
 117.34 648.37 86.3203 615.94 86.3203 575.05 c 0
29 573 m 0
 29 643 86 699 157 699 c 0
 218.859 699 270.09 656.492 282.257 599.252 c 0
 284.055 590.793 285 582.013 285 573 c 0
 285 503 228 447 157 447 c 0
 95.1416 447 43.9102 489.508 31.7432 546.748 c 0
 29.9453 555.207 29 563.987 29 573 c 0
EndSplineSet
EndChar
StartChar: uni00B2
Encoding: 113 178 30
OldEncoding: 178
Width: 234
Flags: HW
HStem: 425 38<91 198> 662 38<112 116>
VStem: 152 42<606 618>
Fore
73 623 m 9
 35 640 l 17
 44 671 75 700 112 700 c 1
 143.763 700 181.419 678.63 191.444 631.461 c 0
 193.098 623.683 194 615.202 194.001 606 c 1
 194 561 152 523 107.999 481 c 1
 91 463 l 1
 198 463 l 17
 198 425 l 1
 35 425 l 1
 35 463 l 1
 77 505 l 17
 108 537 152 567 152.001 606 c 0
 152 612.834 151.351 619.092 150.149 624.746 c 0
 145.021 648.873 129.823 662 112.001 662 c 1
 92.001 662 79 646 73 623 c 9
EndSplineSet
EndChar
StartChar: uni00B3
Encoding: 114 179 31
OldEncoding: 179
Width: 226
Flags: HW
HStem: 412 39<106 110> 542 38<99 109> 662 38<106 110>
VStem: 151 39<623 625>
Fore
24.001 466 m 9
 60 478 l 17
 70 458 91 451 106 451 c 1
 132 451 155 469 155 494 c 1
 155 498.104 154.592 502.037 153.801 505.759 c 0
 149.193 527.433 131.604 542 106 542 c 1
 103 542 101 542 99 542 c 0
 96 542 94 542 92 541 c 1
 92 581 l 1
 94 580 96 580 99 580 c 0
 101 580 104 580 107 580 c 1
 134 580 151 597 151 623 c 1
 151 625.564 150.731 628.083 150.212 630.529 c 0
 146.472 648.127 129.704 662 106.001 662 c 1
 92.001 662 71.001 656 63.999 637 c 9
 31.001 656 l 17
 44.999 686 75 700 106 700 c 1
 148.111 700 180.985 673.061 188.419 638.091 c 0
 189.458 633.201 190 628.153 190 623 c 1
 190.001 586 169.999 569 159.999 560 c 1
 169.081 551.745 185.659 538.037 191.166 512.125 c 0
 192.33 506.65 193 500.629 193 494 c 1
 193 444 155 412 106 412 c 1
 76 412 39 432 24.001 466 c 9
EndSplineSet
EndChar
StartChar: acute
Encoding: 115 180 29
OldEncoding: 180
Width: 289
Flags: HW
Fore
56.458 601.533 m 1
 156.688 754.972 l 1
 164.938 766.212 175.746 770.946 186.106 770.946 c 0
 194.32 770.946 202.254 767.971 208.409 762.904 c 0
 215.588 757.634 221.028 749.996 222.902 741.182 c 0
 224.814 732.182 223.009 721.956 215.534 711.774 c 1
 99.1836 570.17 l 1
 94.248 564.307 87.6641 561.911 81.1143 561.911 c 0
 74.8174 561.911 68.5508 564.126 63.8086 567.607 c 0
 58.5342 571.479 54.2529 577.202 52.8516 583.794 c 0
 51.6826 589.294 52.5186 595.396 56.458 601.533 c 1
EndSplineSet
EndChar
StartChar: mu
Encoding: 116 181 30
OldEncoding: 181
Width: 510
Flags: HW
HStem: -13 67<239 257>
VStem: 80 70<-193 36 -193 426> 360 70<0 426>
Fore
150 36.1504 m 1
 150 -193 l 1
 80 -193 l 1
 80 426 l 1
 151 426 l 0
 151.001 202 l 0
 151 177.052 153.028 155.732 156.862 137.696 c 0
 169.624 77.6543 202.399 54 247.001 54 c 1
 325.001 54 360 142 360.001 202 c 0
 360 426 l 9
 430 426 l 1
 430 0 l 1
 360 0 l 1
 360 48 l 17
 331 12 290.994 -13 251.999 -13 c 0
 191.999 -13 172 14 150 36.1504 c 1
EndSplineSet
EndChar
StartChar: paragraph
Encoding: 117 182 31
OldEncoding: 182
Width: 582
Flags: HW
HStem: 0 66<320 500> 299 66<320 345.971 320 426> 621 61<403 426>
VStem: 64 70<486 497> 250 70<0 304 378 615> 426 74<66 682>
Fore
320.001 615 m 1
 320 365 l 1
 337 365 407.999 361 426 361 c 1
 426 621 l 1
 409 621 338.001 615 320.001 615 c 1
250 599 m 1
 198 582 134 554 134.001 486 c 1
 134 477.18 134.835 469.141 136.396 461.799 c 0
 148.282 405.876 202.268 390.375 250.001 378 c 1
 250 599 l 1
319.999 66 m 1
 425.999 66 l 1
 426.001 299 l 1
 408.001 299 338 304 320 304 c 1
 319.999 66 l 1
250 0 m 1
 250 314 l 1
 157.845 333.996 85.3398 363.818 67.9736 445.522 c 0
 65.3643 457.796 64.001 471.241 64.001 486 c 0
 64 618 228 682 404 682 c 1
 500 682 l 0
 500 0 l 1
 250 0 l 1
EndSplineSet
EndChar
StartChar: cedilla
Encoding: 119 184 30
OldEncoding: 184
Width: 251
Flags: HW
Fore
62 -93 m 1
 77 -82 108.001 -60 108 -42 c 0
 108 -39.5596 107.744 -37.2119 107.253 -34.9043 c 0
 104.528 -22.083 94.5596 -10.4922 81 9 c 0
 144 36 l 0
 161.044 19.7686 177.429 -3.05078 182.997 -29.249 c 0
 184.29 -35.3301 185 -41.5938 185 -48 c 0
 185 -102 117 -132 83 -154 c 1
 62 -93 l 1
EndSplineSet
EndChar
StartChar: uni00B9
Encoding: 120 185 31
OldEncoding: 185
Width: 150
Flags: HW
VStem: 75 37<414 682>
Fore
45.001 606 m 1
 21.001 635 l 1
 74 682 l 1
 112 682 l 1
 112 414 l 1
 75 414 l 1
 75 631 l 1
 45.001 606 l 1
EndSplineSet
EndChar
StartChar: ordmasculine
Encoding: 121 186 32
OldEncoding: 186
Width: 311
Flags: HW
HStem: 347 54<31 285>
Fore
31 401 m 1
 285 401 l 1
 285 347 l 1
 31 347 l 1
 31 401 l 1
83.8496 555.25 m 0
 83.8496 549.47 84.4531 543.855 85.5977 538.468 c 0
 92.7842 504.662 121.331 479.85 156.351 479.85 c 0
 196.95 479.85 228.85 513.2 228.85 555.25 c 0
 228.85 561.029 228.247 566.644 227.103 572.031 c 0
 219.916 605.837 191.37 630.65 156.35 630.65 c 0
 115.75 630.65 83.8496 597.3 83.8496 555.25 c 0
28 555 m 0
 28 625 85 681 156 681 c 0
 217.859 681 269.09 638.492 281.257 581.252 c 0
 283.055 572.793 283.999 564.013 284 555 c 0
 284 485 227 429 156 429 c 0
 94.1416 429 42.9102 471.508 30.7432 528.748 c 0
 28.9453 537.207 28 545.987 28 555 c 0
EndSplineSet
EndChar
StartChar: guillemotright
Encoding: 122 187 33
OldEncoding: 187
Width: 476
Flags: HW
DStem: 53 546 119 546 147 404 213 404 147 404 213 404 53 262 119 262 249 546 315 546 343 404 409 404 343 404 409 404 249 262 315 262
Fore
119 546 m 1
 213 404 l 1
 118.999 262 l 1
 52.999 262 l 1
 147 404 l 1
 53 546 l 1
 119 546 l 1
315 546 m 1
 409 404 l 1
 314.999 262 l 1
 248.999 262 l 1
 343 404 l 1
 249 546 l 1
 315 546 l 1
EndSplineSet
EndChar
StartChar: onequarter
Encoding: 123 188 34
OldEncoding: 188
Width: 519
Flags: HW
HStem: 0 21G<393 437> 106 44<321 393 437 481>
VStem: 106 37<414 682> 393 44<0 106 150 313>
DStem: 303 313 348 313 272 106 321 150 366 555 422 555 30 153 86 153
Fore
76.001 606 m 1
 52.001 635 l 1
 105 682 l 1
 143 682 l 1
 143 414 l 1
 106 414 l 1
 106 631 l 1
 76.001 606 l 1
437 0 m 1
 393 0 l 1
 393 106 l 1
 272 106 l 9
 303 313 l 1
 348 313 l 1
 321.001 150 l 1
 393.001 150 l 1
 393 313 l 1
 437 313 l 1
 437.001 150 l 9
 481.001 150 l 17
 481 106 l 1
 437 106 l 1
 437 0 l 1
86 153 m 1
 30 153 l 1
 366 555 l 0
 422 555 l 1
 86 153 l 1
EndSplineSet
EndChar
StartChar: onehalf
Encoding: 124 189 35
OldEncoding: 189
Width: 478
Flags: HW
HStem: 0 38<333 440> 237 38<354 356>
VStem: 106 37<414 682> 394 42<180 193>
DStem: 366 555 422 555 30 153 86 153
Fore
86 153 m 1
 30 153 l 1
 366 555 l 0
 422 555 l 1
 86 153 l 1
315 198 m 9
 278 214 l 17
 286 246 317 275 354 275 c 1
 385.697 275 423.266 253.717 433.383 206.12 c 0
 435.075 198.158 435.999 189.459 436 180 c 1
 435.999 136 393.999 98 350.999 55 c 1
 333 38 l 1
 440 38 l 17
 440 0 l 1
 278 0 l 1
 278 38 l 1
 319 79 l 17
 351 111 394 142 394 180 c 0
 394 187.16 393.326 193.684 392.079 199.549 c 0
 386.884 223.992 371.742 237 354 237 c 1
 334 237 321 221 315 198 c 9
76.001 606 m 1
 52.001 635 l 1
 105 682 l 1
 143 682 l 1
 143 414 l 1
 106 414 l 1
 106 631 l 1
 76.001 606 l 1
EndSplineSet
EndChar
StartChar: threequarters
Encoding: 125 190 36
OldEncoding: 190
Width: 537
Flags: HW
HStem: 0 21G<413 457> 106 44<341 413 457 501> 412 39<103 109> 542 38<96 108> 662 38<103 109>
VStem: 148 39<612.521 626> 413 44<0 106 150 313>
DStem: 323 313 368 313 292 106 341 150 386 555 442 555 50 153 106 153
Fore
106 153 m 1
 50 153 l 1
 386 555 l 0
 442 555 l 1
 106 153 l 1
21.001 466 m 9
 57 478 l 17
 67 458 88 451 103 451 c 1
 129 451 152 469 152 494 c 1
 152 498.104 151.592 502.037 150.801 505.759 c 0
 146.193 527.433 128.604 542 103 542 c 1
 100 542 98 542 96 542 c 0
 94 542 92 542 89 541 c 1
 89 581 l 1
 92 580 94 580 96 580 c 0
 98 580 100 580 104 580 c 1
 131 580 148 597 148 623 c 1
 148 625.564 147.731 628.083 147.212 630.529 c 0
 143.472 648.127 126.704 662 103.001 662 c 1
 89.001 662 68.001 656 60.999 637 c 9
 28.001 656 l 17
 41.999 686 72 700 103 700 c 1
 145.111 700 177.985 673.061 185.419 638.091 c 0
 186.458 633.201 187 628.153 187 623 c 1
 187.001 586 166.999 569 156.999 560 c 1
 166.081 551.745 182.659 538.037 188.166 512.125 c 0
 189.33 506.65 190 500.629 190 494 c 1
 190 444 152 412 103 412 c 1
 73 412 36 432 21.001 466 c 9
457 0 m 1
 413 0 l 1
 413 106 l 1
 292 106 l 9
 323 313 l 1
 368 313 l 1
 341.001 150 l 1
 413.001 150 l 1
 413 313 l 1
 457 313 l 1
 457.001 150 l 9
 501.001 150 l 17
 501 106 l 1
 457 106 l 1
 457 0 l 1
EndSplineSet
EndChar
StartChar: AE
Encoding: 133 198 37
OldEncoding: 198
Width: 698
Flags: HW
HStem: 0 21G<45.4453 133.015 388.428 680.327> 691 20G<334.218 680.327>
DStem: 334.218 711 387.385 640.37 45.4453 0 288.645 384.957 334.218 711 259.242 315.11 45.4453 0 133.015 0
Fore
388.428 315.11 m 1
 259.242 315.11 l 0
 133.015 0 l 0
 45.4453 0 l 1
 334.219 711 l 1
 680.327 711 l 1
 680.327 638.285 l 0
 464.529 638.285 l 0
 464.53 384.957 l 1
 680.327 384.957 l 1
 680.326 313.025 l 0
 464.529 313.025 l 0
 464.529 71.9326 l 0
 680.327 71.9326 l 1
 680.327 0 l 1
 388.428 0 l 1
 388.428 315.11 l 1
387.385 603.883 m 1
 387.385 640.37 l 1
 288.645 384.957 l 1
 388.428 384.957 l 1
 387.385 603.883 l 1
EndSplineSet
EndChar
StartChar: Eth
Encoding: 143 208 46
OldEncoding: 208
Width: 1958
Flags: HW
HStem: 0 21G<164 239.76 239.76 350.08> 691 20G<164 350.08>
Fore
164 323.44 m 1
 75.5195 323.44 l 1
 75.5186 392.08 l 1
 164 392.08 l 1
 164 711 l 1
 350.08 711 l 1
 498.156 711 603.418 602.923 635.28 453.023 c 0
 641.908 421.84 645.36 388.846 645.36 354.64 c 1
 645.36 156 525.84 0 350.08 0 c 0
 239.76 0 l 1
 164 0 l 1
 164 323.44 l 1
240.8 323.44 m 1
 240.8 69.6797 l 1
 350.08 69.6797 l 1
 475.919 69.6797 568.56 185.12 568.56 354.64 c 1
 568.56 385.253 565.539 414.136 559.847 440.916 c 0
 534.018 562.431 453.194 640.64 350.08 640.64 c 1
 240.801 640.64 l 1
 240.801 392.08 l 1
 387.52 392.08 l 1
 387.521 323.44 l 1
 240.8 323.44 l 1
EndSplineSet
EndChar
StartChar: Oslash
Encoding: 151 216 53
OldEncoding: 216
Width: 1200
Flags: HW
HStem: -14 21G<111 185 300.487 425>
VStem: 52 74<350 371> 524 74<350 371>
DStem: 403.622 634.549 457.143 589.162 178.715 136.078 228.817 83.1133
Fore
200.324 19.9619 m 1
 185 -14 l 1
 111 -14 l 1
 146.9 65.5693 l 1
 104.265 113.959 77.2373 178.849 63.3643 244.118 c 0
 55.6465 280.426 52 316.852 51.999 350.62 c 1
 51.999 505.12 124 721.42 325 721.42 c 1
 365.831 721.42 401.257 712.494 431.788 696.974 c 1
 446.999 730.69 l 0
 520.999 730.69 l 1
 487.625 656.72 l 1
 539.13 606.606 570.725 533.616 586.257 460.542 c 0
 594.262 422.884 597.999 385.204 597.999 350.62 c 1
 598 196.12 525 -14 325 -14 c 1
 275.975 -14 234.701 -1.375 200.324 19.9619 c 1
228.816 83.1133 m 1
 254.978 64.8164 286.775 53.9805 325 53.9805 c 1
 475 53.9805 524 220.84 523.999 350.62 c 0
 524 385.739 520.725 424.026 512.824 461.194 c 0
 502.738 508.645 485.113 554.274 457.143 589.162 c 1
 228.816 83.1133 l 1
178.716 136.078 m 1
 403.622 634.549 l 1
 381.153 646.573 355.081 653.44 325 653.44 c 0
 174 653.44 126 480.4 125.999 350.62 c 1
 126.001 316.106 129.143 278.971 136.778 243.048 c 0
 144.995 204.393 158.413 167.144 178.716 136.078 c 1
EndSplineSet
EndChar
StartChar: Thorn
Encoding: 157 222 57
OldEncoding: 222
Width: 669
Flags: HW
HStem: 0 21G<76 152.8> 691 20G<76 152.8>
Fore
152.8 232.96 m 1
 284.88 232.96 429.601 258.96 429.601 366.08 c 1
 429.601 373.681 428.852 380.832 427.422 387.559 c 0
 407.33 482.084 252.803 492.96 152.8 492.96 c 1
 152.8 232.96 l 1
76 711 m 0
 152.801 711 l 1
 152.8 561.6 l 1
 319.74 561.6 476.299 527.861 502.549 404.365 c 0
 505.08 392.455 506.4 379.71 506.4 366.08 c 0
 506.399 198.64 332.72 164.32 152.801 164.32 c 1
 152.8 0 l 1
 76 0 l 1
 76 711 l 0
EndSplineSet
EndChar
StartChar: germandbls
Encoding: 158 223 58
OldEncoding: 223
Width: 612
Flags: HW
HStem: 0 21G<50 121.98>
Fore
90.1699 562.38 m 1
 123 651 200.319 722.03 324.95 722.03 c 1
 429.5 722.03 518 667.917 538.078 573.458 c 0
 541.341 558.108 542.796 541.692 542.22 524.27 c 1
 542.221 429.51 444.431 380.07 385.721 364.62 c 1
 435.48 352.641 528.063 307.172 547.018 218.002 c 0
 549.249 207.503 550.46 196.398 550.46 184.67 c 1
 550.46 35 445.46 -14.4199 303.32 -14.4199 c 1
 271.39 -14.4199 245.64 -5.15039 212.68 11.3301 c 9
 256.97 71.0703 l 17
 273.45 64.8896 288.899 53.5596 303.319 53.5596 c 1
 399.109 53.5596 478.48 77 478.479 184.67 c 1
 478.479 192.089 477.699 199.308 476.211 206.307 c 0
 460.185 281.706 362.133 331.66 274.48 331.66 c 1
 267.271 331.66 262.119 331.66 256.971 331.66 c 0
 250.789 331.66 244.609 331.66 236.37 328.57 c 1
 236.37 402.73 l 1
 243.58 400.67 248.729 400.67 253.88 400.67 c 0
 260.06 400.67 266.24 400.67 274.481 400.67 c 1
 357.91 400.67 469.21 448.05 469.21 524.27 c 1
 469.211 537.797 467.97 550.201 465.565 561.514 c 0
 451.857 626.006 400.31 655.08 324.949 655.08 c 1
 225.039 655.08 183.001 606 159.06 539.72 c 1
 123 432 131.251 151.41 121.98 0 c 1
 50 0 l 1
 65.4502 176.13 54 453 90.1699 562.38 c 1
EndSplineSet
EndChar
StartChar: ae
Encoding: 165 230 63
OldEncoding: 230
Width: 746
Flags: HW
HStem: -14 66<218 222 480.053 497> 229 66<387 675> 294 66<218 222> 466 66<220 222 480.487 497>
VStem: 46 74<173 195>
Back
414.656 295 m 5
 673.344 295 l 5
 664.672 381.516 622.031 468 544 468 c 4
 465.969 468 423.328 381.516 414.656 295 c 5
414.641 229 m 5
 423.281 141.719 465.938 52 544 52 c 4
 590.016 52 622.375 79.3281 643.422 118.484 c 4
 708.344 91.6094 l 4
 674.984 27.0625 619.422 -14 544 -14 c 5
 414 -14 343 108 343 262 c 4
 343 416 414 534 544 534 c 4
 674 534 745 416 745 262 c 4
 745 251.24 744.458 240.156 743.469 229 c 5
 414.641 229 l 5
228 294 m 4
 154 294 108 236 108 173 c 4
 108 110 154 52 228 52 c 4
 290 52 348 108 348 173 c 5
 348 238 290 294 228 294 c 4
228 360 m 4
 296 360 336 332 350 308 c 5
 349.439 330 l 4
 349.439 405 304 466 230 466 c 4
 184 466 142 450 120 428 c 13
 105.18 447.5 82 478 82 478 c 4
 116 506 160 532 230 532 c 4
 326.845 532 415.868 461 415.868 330 c 4
 415 270 l 4
 416 132 l 5
 416 96 430 56 472 56 c 5
 472 -10 l 5
 412 -10 373 4 364 49 c 5
 350 26 308 -14 228 -14 c 5
 118 -14 38 68 38 173 c 4
 38 278 128 360 228 360 c 4
EndSplineSet
Fore
217.999 294 m 0xb8
 143.999 294 120 236 120 173 c 0
 120 158.612 121.252 144.485 124.065 131.25 c 0
 133.569 86.5332 160.9 52 218 52 c 0
 280 52 316 108 316 173 c 1
 316 184.844 314.806 196.389 312.476 207.351 c 0
 302.018 256.548 268.702 294 217.999 294 c 0xb8
357.172 444.129 m 1
 391.085 499.773 423.984 534 494 534 c 0
 591.666 534 645.872 467.398 666.795 368.966 c 0
 673.722 336.379 677 300.303 676.999 262 c 0
 677 251.234 675.469 240.156 675.47 229 c 1
 387.298 229 l 1xd8
 387.297 212.664 388.711 186.3 394.545 158.854 c 0
 405.495 107.335 432.021 52 494 52 c 0
 540.016 52 552.374 79.3281 573.422 118.484 c 0
 638.344 91.6094 l 0
 604.983 27.0625 569.422 -14 494 -14 c 0
 415.844 -14 390.021 27.0371 356 80 c 1
 330 34 312 -14 218 -14 c 0
 126.385 -14 68.0664 42.8799 51.1309 122.555 c 0
 47.7324 138.544 46 155.451 46 173 c 0
 46 278 118.001 360 218.001 360 c 0
 280.223 360 299 337 318 309 c 1
 318.914 317.082 315.916 330.206 317.264 337.988 c 1
 317.264 354.69 315.843 370.591 312.748 385.151 c 0
 302.632 432.744 274.639 466 220.001 466 c 0
 174.001 466 152 450 130.001 428 c 9
 115.18 447.5 92 478 92 478 c 0
 126 506 150 532 220 532 c 0
 283.279 532 323.223 501.688 357.172 444.129 c 1
387.364 295 m 1
 601.344 295 l 1
 599.216 316.228 596.368 337.454 592.128 357.401 c 0
 579.088 418.75 552.886 468 494.001 468 c 0
 414.001 468 389.001 369 387.364 295 c 1
EndSplineSet
EndChar
StartChar: igrave
Encoding: 171 236 68
OldEncoding: 236
Width: 229
Flags: HW
HStem: 0 21G<78 152> 504 20G<78 152>
VStem: 78 74<0 524>
Fore
78 524 m 1
 152 524 l 1
 152 0 l 1
 78 0 l 1
 78 524 l 1
EndSplineSet
Ref: 64 96 S 1 0 0 1 -79 7
EndChar
StartChar: iacute
Encoding: 172 237 69
OldEncoding: 237
Width: 226
Flags: HW
HStem: 0 21G<78 152> 504 20G<78 152>
VStem: 78 74<0 524>
Fore
78 524 m 1
 152 524 l 1
 152 0 l 1
 78 0 l 1
 78 524 l 1
EndSplineSet
Ref: 115 180 S 1 0 0 1 42 -4
EndChar
StartChar: icircumflex
Encoding: 173 238 70
OldEncoding: 238
Width: 454
Flags: HW
HStem: 0 21G<196 270> 504 20G<196 270> 694 20<201 265>
VStem: 196 74<0 524>
DStem: 201 714 234 650 66 547 157 547
Fore
196 524 m 1
 270 524 l 1
 270 0 l 1
 196 0 l 1
 196 524 l 1
EndSplineSet
Ref: 62 94 N 1 0 0 1 -4 -15
EndChar
StartChar: idieresis
Encoding: 174 239 71
OldEncoding: 239
Width: 346
Flags: HW
HStem: 0 21G<138 212> 504 20G<138 212>
VStem: 14 92<608.596 621> 138 74<0 524> 244 92<619 621>
CounterMasks: 1 00
Fore
138 524 m 1
 212 524 l 1
 212 0 l 1
 138 0 l 1
 138 524 l 1
EndSplineSet
Ref: 103 168 S 1 0 0 1 -28 210
EndChar
StartChar: eth
Encoding: 175 240 72
OldEncoding: 240
Width: 523
Flags: HW
HStem: -14 66<236 254> 386 66<220 238> 642 69<124 158>
VStem: 45 74<209 226> 384 74<220 245>
DStem: 227 630 284 588 161 567 209 518 362 745 409 692 286 677 339 630
Fore
119 222 m 0
 119 205.277 120.688 189.78 123.72 175.514 c 0
 141.178 93.377 203.251 52 245 52 c 0
 320 52 383.999 136 384 222 c 1
 384 233.166 382.814 243.994 380.602 254.406 c 0
 364.185 331.643 291.209 386 226 386 c 1
 166 386 119 295 119 222 c 0
338.999 630 m 1
 375.787 587.958 430.217 504.492 447.195 424.617 c 0
 449.602 413.296 451.255 402.048 451.999 391 c 1
 455.345 341.819 459.318 306.46 458 245 c 1
 458 94 365.041 -14 250 -14 c 0
 132.155 -14 72.0049 57.6436 52.3867 149.943 c 0
 47.3662 173.561 45 198.532 45 224 c 0
 45 350 125.999 452 230.999 452 c 0
 313.999 452 339 413 375.999 380 c 1
 376 390.245 374.461 402.331 371.663 415.492 c 0
 359.17 474.271 321.584 554.501 284 588 c 1
 209 518 l 1
 161 567 l 1
 226.999 630 l 1
 200.999 639 175 642 149 642 c 0
 130 642 111 640 93 638 c 1
 86 710 l 1
 99 711 113 711 126 711 c 0
 181 711 235.001 703 285.999 677 c 1
 361.999 745 l 1
 409 692 l 1
 338.999 630 l 1
EndSplineSet
EndChar
StartChar: oslash
Encoding: 183 248 79
OldEncoding: 248
Width: 520
Flags: HW
HStem: -14 66<258 272> 468 66<258 272>
VStem: 55 74<262 275> 387 74<262 291>
DStem: 330.172 436.844 367.969 376.641 148.047 145.906 185.25 84.7656
Back
47 262 m 4
 47 416 118 534 248 534 c 4
 378 534 449 416 449 262 c 4
 449 108 378 -14 248 -14 c 5
 118 -14 47 108 47 262 c 4
117 262 m 4
 117 166 160 52 248 52 c 4
 342 52 379 166 379 262 c 4
 379 358 336 468 248 468 c 4
 160 468 117 358 117 262 c 4
EndSplineSet
Fore
367.969 376.641 m 1
 185.251 84.7656 l 1
 204.608 64.5312 228.828 52 258 52 c 0
 352 52 387 166 386.999 262 c 0
 387 286.91 384.936 312.762 379.7 337.391 c 0
 376.814 350.967 372.965 364.171 367.969 376.641 c 1
330.172 436.844 m 1
 310.906 456.156 286.876 468 258.001 468 c 0
 170.001 468 129.001 358 128.999 262 c 0
 129 236.782 131.115 210.326 136.494 185.02 c 0
 139.36 171.536 143.153 158.377 148.048 145.906 c 1
 330.172 436.844 l 1
47 -14 m 1
 103.359 74.5312 l 1
 85.4727 103.271 71.9277 137.756 63.7871 176.056 c 0
 58.0527 203.035 54.999 231.908 54.999 262 c 0
 55 416 128 534 258 534 c 0
 301.453 534 338.312 520.812 368.142 497.5 c 1
 392.233 536 l 1
 467.733 536 l 1
 412.531 447.812 l 1
 430.581 419.429 444.216 385.192 452.355 346.899 c 0
 457.998 320.35 461 291.851 460.999 262 c 0
 461 108 388 -14 258 -14 c 1
 214.233 -14 177.173 -0.171875 147.234 24.0312 c 1
 123.423 -14 l 1
 47 -14 l 1
EndSplineSet
EndChar
StartChar: thorn
Encoding: 189 254 83
OldEncoding: 254
Width: 510
Flags: HW
HStem: 0 21G<68 142> 80 66<258 279> 561 66<275 293> 690 20G<68 142>
VStem: 68 74<0 152 0 369 0 710> 387 74<335 385>
Fore
142 0 m 17
 68 0 l 1
 68 710 l 1
 142 710 l 1
 142 543 l 17
 174 589 208 627 279 627 c 0
 373.847 627 430.638 549.106 451.667 450.172 c 0
 457.909 420.806 461 389.586 461.001 358 c 0
 461.001 220 418 80 260 80 c 1
 180 80 142 152 142 152 c 0
 142 152 142.001 59.2803 142 0 c 17
387 356 m 0
 387 386.595 384.047 415.533 378.527 441.501 c 0
 363.48 512.29 329.36 561 284 561 c 1
 216 561 140 482 140 356 c 1
 140 328.28 142.668 303.38 147.37 281.255 c 0
 166.758 190.043 220.736 146 265 146 c 0
 338 146 387 222 387 356 c 0
EndSplineSet
EndChar
StartChar: figuredash
Encoding: 191 8210 79
OldEncoding: 8210
Width: 551
Flags: HW
HStem: 264 66<88 463>
Fore
88 330 m 1
 463 330 l 1
 463 264 l 1
 88 264 l 1
 88 330 l 1
EndSplineSet
EndChar
StartChar: endash
Encoding: 192 8211 80
OldEncoding: 8211
Width: 509
Flags: HW
HStem: 264 66<88 423>
Fore
88 330 m 1
 423 330 l 1
 423 264 l 1
 88 264 l 1
 88 330 l 1
EndSplineSet
EndChar
StartChar: emdash
Encoding: 193 8212 81
OldEncoding: 8212
Width: 650
Flags: HW
HStem: 264 66<78 571>
Fore
78 330 m 1
 571 330 l 1
 571 264 l 1
 78 264 l 1
 78 330 l 1
EndSplineSet
EndChar
StartChar: Euro
Encoding: 202 8364 87
OldEncoding: 8364
Width: 552
Flags: HW
HStem: 103 66<316 328> 249 66<71 148 207 354> 372 66<74 136 225 357> 518 66<316 328>
VStem: 136 70<326 360>
Fore
136.902 372 m 1
 74 372 l 1
 74 438 l 1
 148.611 438 l 1
 173.131 521.963 232.27 584 316 584 c 0
 394 584 424 564 469.999 519 c 9
 451.672 500.672 423 472 423 472 c 0
 395 500 374 518 316 518 c 1
 274.775 518 243.547 482.305 225.084 438 c 1
 357 438 l 1
 357 372 l 1
 207.721 372 l 1
 206.581 362.76 206 353.689 206 345 c 0
 206 334.571 206.562 324.567 207.616 315 c 1
 354 315 l 1
 354 249 l 1
 224.806 249 l 1
 247.63 196.947 286.694 169 316 169 c 0
 358 169 383 177 425 223 c 9
 472 176 l 1
 439 138 409.001 103 316.001 103 c 1
 225.585 103 171.322 166.269 148.562 249 c 1
 71 249 l 1
 71 315 l 1
 137.247 315 l 1
 136.413 325.575 136.001 336.265 136 347 c 0
 136 355.41 136.303 363.753 136.902 372 c 1
EndSplineSet
EndChar
